<?xml version="1.0" encoding="utf-8" standalone="no"?>
<!DOCTYPE svg PUBLIC "-//W3C//DTD SVG 1.1//EN"
  "http://www.w3.org/Graphics/SVG/1.1/DTD/svg11.dtd">
<!-- Created with matplotlib (https://matplotlib.org/) -->
<svg height="288pt" version="1.1" viewBox="0 0 432 288" width="432pt" xmlns="http://www.w3.org/2000/svg" xmlns:xlink="http://www.w3.org/1999/xlink">
 <defs>
  <style type="text/css">
*{stroke-linecap:butt;stroke-linejoin:round;}
  </style>
 </defs>
 <g id="figure_1">
  <g id="patch_1">
   <path d="M 0 288 
L 432 288 
L 432 0 
L 0 0 
z
" style="fill:#ffffff;"/>
  </g>
  <g id="axes_1">
   <g id="patch_2">
    <path d="M 54 252 
L 388.8 252 
L 388.8 34.56 
L 54 34.56 
z
" style="fill:#ffffff;"/>
   </g>
   <g id="PolyCollection_1">
    <defs>
     <path d="M 69.218182 -102.361508 
L 69.218182 -46.255723 
L 72.292562 -50.136172 
L 75.366942 -54.605932 
L 78.441322 -59.782649 
L 81.515702 -65.749045 
L 84.590083 -72.540535 
L 87.664463 -80.09639 
L 90.738843 -88.291977 
L 93.813223 -96.959494 
L 96.887603 -105.894027 
L 99.961983 -114.841597 
L 103.036364 -123.608794 
L 106.110744 -132.051534 
L 109.185124 -139.951259 
L 112.259504 -147.161018 
L 115.333884 -153.587339 
L 118.408264 -159.245655 
L 121.482645 -164.169612 
L 124.557025 -168.435254 
L 127.631405 -172.110961 
L 130.705785 -175.34925 
L 133.780165 -178.298651 
L 136.854545 -181.056788 
L 139.928926 -183.646968 
L 143.003306 -186.078184 
L 146.077686 -188.322919 
L 149.152066 -190.370633 
L 152.226446 -192.185444 
L 155.300826 -193.66384 
L 158.375207 -194.785379 
L 161.449587 -195.517374 
L 164.523967 -195.738466 
L 167.598347 -195.445412 
L 170.672727 -194.55241 
L 173.747107 -193.020347 
L 176.821488 -190.873663 
L 179.895868 -188.139162 
L 182.970248 -184.834882 
L 186.044628 -181.013513 
L 189.119008 -176.71011 
L 192.193388 -172.015984 
L 195.267769 -167.009629 
L 198.342149 -161.736745 
L 201.416529 -156.283257 
L 204.490909 -150.736823 
L 207.565289 -145.206253 
L 210.639669 -139.811998 
L 213.71405 -134.623923 
L 216.78843 -129.741503 
L 219.86281 -125.229738 
L 222.93719 -121.15464 
L 226.01157 -117.579313 
L 229.08595 -114.555232 
L 232.160331 -112.148628 
L 235.234711 -110.384273 
L 238.309091 -109.303693 
L 241.383471 -108.898347 
L 244.457851 -109.124157 
L 247.532231 -109.91138 
L 250.606612 -111.157964 
L 253.680992 -112.820871 
L 256.755372 -114.824327 
L 259.829752 -117.037406 
L 262.904132 -119.374294 
L 265.978512 -121.786262 
L 269.052893 -124.182489 
L 272.127273 -126.536306 
L 275.201653 -128.810959 
L 278.276033 -130.95904 
L 281.350413 -132.935091 
L 284.424793 -134.701255 
L 287.499174 -136.242386 
L 290.573554 -137.558367 
L 293.647934 -138.618556 
L 296.722314 -139.431535 
L 299.796694 -140.018089 
L 302.871074 -140.414415 
L 305.945455 -140.596405 
L 309.019835 -140.575657 
L 312.094215 -140.351956 
L 315.168595 -139.937449 
L 318.242975 -139.361115 
L 321.317355 -138.667583 
L 324.391736 -137.891716 
L 327.466116 -137.019628 
L 330.540496 -136.051821 
L 333.614876 -134.929456 
L 336.689256 -133.604589 
L 339.763636 -131.971472 
L 342.838017 -129.999943 
L 345.912397 -127.719383 
L 348.986777 -125.153105 
L 352.061157 -122.333015 
L 355.135537 -119.10992 
L 358.209917 -115.291132 
L 361.284298 -110.673153 
L 364.358678 -104.88815 
L 367.433058 -97.494109 
L 370.507438 -88.493096 
L 373.581818 -78.281387 
L 373.581818 -135.718868 
L 373.581818 -135.718868 
L 370.507438 -143.102471 
L 367.433058 -149.715014 
L 364.358678 -155.273082 
L 361.284298 -159.993952 
L 358.209917 -164.140127 
L 355.135537 -167.812233 
L 352.061157 -171.008855 
L 348.986777 -173.706339 
L 345.912397 -175.904567 
L 342.838017 -177.641547 
L 339.763636 -178.952458 
L 336.689256 -179.839815 
L 333.614876 -180.396989 
L 330.540496 -180.715633 
L 327.466116 -180.915367 
L 324.391736 -181.148487 
L 321.317355 -181.520051 
L 318.242975 -182.042548 
L 315.168595 -182.710427 
L 312.094215 -183.530038 
L 309.019835 -184.463207 
L 305.945455 -185.475243 
L 302.871074 -186.51565 
L 299.796694 -187.543995 
L 296.722314 -188.563181 
L 293.647934 -189.529784 
L 290.573554 -190.405758 
L 287.499174 -191.135449 
L 284.424793 -191.694485 
L 281.350413 -192.073955 
L 278.276033 -192.222773 
L 275.201653 -192.099 
L 272.127273 -191.653016 
L 269.052893 -190.897333 
L 265.978512 -189.7948 
L 262.904132 -188.377491 
L 259.829752 -186.704154 
L 256.755372 -184.800137 
L 253.680992 -182.768921 
L 250.606612 -180.700181 
L 247.532231 -178.72376 
L 244.457851 -176.989943 
L 241.383471 -175.613393 
L 238.309091 -174.722 
L 235.234711 -174.437881 
L 232.160331 -174.832269 
L 229.08595 -175.974082 
L 226.01157 -177.849658 
L 222.93719 -180.416382 
L 219.86281 -183.600126 
L 216.78843 -187.320128 
L 213.71405 -191.439791 
L 210.639669 -195.827875 
L 207.565289 -200.38795 
L 204.490909 -205.054181 
L 201.416529 -209.734347 
L 198.342149 -214.353796 
L 195.267769 -218.869811 
L 192.193388 -223.268879 
L 189.119008 -227.426432 
L 186.044628 -231.226587 
L 182.970248 -234.634998 
L 179.895868 -237.557145 
L 176.821488 -239.933119 
L 173.747107 -241.679493 
L 170.672727 -242.791965 
L 167.598347 -243.243194 
L 164.523967 -243.06157 
L 161.449587 -242.325656 
L 158.375207 -241.166925 
L 155.300826 -239.788813 
L 152.226446 -238.325427 
L 149.152066 -236.9079 
L 146.077686 -235.595271 
L 143.003306 -234.465794 
L 139.928926 -233.443231 
L 136.854545 -232.47483 
L 133.780165 -231.373754 
L 130.705785 -229.943841 
L 127.631405 -227.996043 
L 124.557025 -225.420989 
L 121.482645 -222.067957 
L 118.408264 -217.827378 
L 115.333884 -212.629309 
L 112.259504 -206.491978 
L 109.185124 -199.528895 
L 106.110744 -191.80445 
L 103.036364 -183.545072 
L 99.961983 -174.921119 
L 96.887603 -166.117918 
L 93.813223 -157.368696 
L 90.738843 -148.819475 
L 87.664463 -140.623575 
L 84.590083 -132.916604 
L 81.515702 -125.783291 
L 78.441322 -119.213103 
L 75.366942 -113.189983 
L 72.292562 -107.614413 
L 69.218182 -102.361508 
z
" id="m24ec9691d1" style="stroke:#1f77b4;stroke-opacity:0.2;"/>
    </defs>
    <g clip-path="url(#p64dcc0ee5d)">
     <use style="fill:#1f77b4;fill-opacity:0.2;stroke:#1f77b4;stroke-opacity:0.2;" x="0" xlink:href="#m24ec9691d1" y="288"/>
    </g>
   </g>
   <g id="PolyCollection_2">
    <defs>
     <path d="M 69.218182 -102.733145 
L 69.218182 -45.883636 
L 72.292562 -49.704494 
L 75.366942 -54.153018 
L 78.441322 -59.330647 
L 81.515702 -65.30761 
L 84.590083 -72.118748 
L 87.664463 -79.723659 
L 90.738843 -88.001276 
L 93.813223 -96.729956 
L 96.887603 -105.708103 
L 99.961983 -114.708726 
L 103.036364 -123.494548 
L 106.110744 -131.913775 
L 109.185124 -139.798971 
L 112.259504 -147.002767 
L 115.333884 -153.458248 
L 118.408264 -159.174775 
L 121.482645 -164.129717 
L 124.557025 -168.406758 
L 127.631405 -172.133215 
L 130.705785 -175.422953 
L 133.780165 -178.37732 
L 136.854545 -181.143994 
L 139.928926 -183.760377 
L 143.003306 -186.192141 
L 146.077686 -188.462319 
L 149.152066 -190.531308 
L 152.226446 -192.30904 
L 155.300826 -193.761717 
L 158.375207 -194.829512 
L 161.449587 -195.506405 
L 164.523967 -195.696278 
L 167.598347 -195.338293 
L 170.672727 -194.368441 
L 173.747107 -192.762729 
L 176.821488 -190.552647 
L 179.895868 -187.737953 
L 182.970248 -184.383522 
L 186.044628 -180.552528 
L 189.119008 -176.272559 
L 192.193388 -171.578886 
L 195.267769 -166.588862 
L 198.342149 -161.342262 
L 201.416529 -155.925986 
L 204.490909 -150.425939 
L 207.565289 -144.972193 
L 210.639669 -139.66267 
L 213.71405 -134.562884 
L 216.78843 -129.725928 
L 219.86281 -125.255472 
L 222.93719 -121.219873 
L 226.01157 -117.688724 
L 229.08595 -114.735206 
L 232.160331 -112.388398 
L 235.234711 -110.702506 
L 238.309091 -109.662397 
L 241.383471 -109.259572 
L 244.457851 -109.442805 
L 247.532231 -110.177562 
L 250.606612 -111.401169 
L 253.680992 -113.003274 
L 256.755372 -114.903927 
L 259.829752 -117.036082 
L 262.904132 -119.32271 
L 265.978512 -121.671506 
L 269.052893 -124.028357 
L 272.127273 -126.343367 
L 275.201653 -128.598197 
L 278.276033 -130.716485 
L 281.350413 -132.648328 
L 284.424793 -134.391059 
L 287.499174 -135.938265 
L 290.573554 -137.266197 
L 293.647934 -138.367479 
L 296.722314 -139.246023 
L 299.796694 -139.870855 
L 302.871074 -140.286572 
L 305.945455 -140.486625 
L 309.019835 -140.446551 
L 312.094215 -140.221169 
L 315.168595 -139.871324 
L 318.242975 -139.38965 
L 321.317355 -138.752503 
L 324.391736 -138.009986 
L 327.466116 -137.204633 
L 330.540496 -136.323357 
L 333.614876 -135.274832 
L 336.689256 -134.009009 
L 339.763636 -132.380865 
L 342.838017 -130.402026 
L 345.912397 -128.102301 
L 348.986777 -125.582879 
L 352.061157 -122.797752 
L 355.135537 -119.601018 
L 358.209917 -115.791873 
L 361.284298 -111.20375 
L 364.358678 -105.450319 
L 367.433058 -98.042552 
L 370.507438 -89.057603 
L 373.581818 -78.78724 
L 373.581818 -135.59305 
L 373.581818 -135.59305 
L 370.507438 -143.045717 
L 367.433058 -149.712904 
L 364.358678 -155.308066 
L 361.284298 -160.031182 
L 358.209917 -164.188512 
L 355.135537 -167.839266 
L 352.061157 -171.031102 
L 348.986777 -173.745157 
L 345.912397 -175.944391 
L 342.838017 -177.642344 
L 339.763636 -178.878884 
L 336.689256 -179.720041 
L 333.614876 -180.259589 
L 330.540496 -180.589879 
L 327.466116 -180.822362 
L 324.391736 -181.068468 
L 321.317355 -181.423897 
L 318.242975 -181.956359 
L 315.168595 -182.651866 
L 312.094215 -183.498713 
L 309.019835 -184.483854 
L 305.945455 -185.513485 
L 302.871074 -186.55254 
L 299.796694 -187.576848 
L 296.722314 -188.540842 
L 293.647934 -189.468173 
L 290.573554 -190.324882 
L 287.499174 -191.07258 
L 284.424793 -191.663185 
L 281.350413 -192.05398 
L 278.276033 -192.205999 
L 275.201653 -192.087782 
L 272.127273 -191.649953 
L 269.052893 -190.852679 
L 265.978512 -189.722668 
L 262.904132 -188.288311 
L 259.829752 -186.601799 
L 256.755372 -184.728616 
L 253.680992 -182.752013 
L 250.606612 -180.741684 
L 247.532231 -178.799554 
L 244.457851 -177.052339 
L 241.383471 -175.667611 
L 238.309091 -174.75533 
L 235.234711 -174.408281 
L 232.160331 -174.744794 
L 229.08595 -175.835993 
L 226.01157 -177.689718 
L 222.93719 -180.247792 
L 219.86281 -183.397947 
L 216.78843 -187.096911 
L 213.71405 -191.234344 
L 210.639669 -195.682124 
L 207.565289 -200.277401 
L 204.490909 -204.973993 
L 201.416529 -209.658469 
L 198.342149 -214.279732 
L 195.267769 -218.808241 
L 192.193388 -223.166021 
L 189.119008 -227.277682 
L 186.044628 -231.091766 
L 182.970248 -234.535932 
L 179.895868 -237.559714 
L 176.821488 -240.025899 
L 173.747107 -241.88217 
L 170.672727 -243.075189 
L 167.598347 -243.556364 
L 164.523967 -243.351878 
L 161.449587 -242.556056 
L 158.375207 -241.349486 
L 155.300826 -239.883573 
L 152.226446 -238.296289 
L 149.152066 -236.770652 
L 146.077686 -235.438656 
L 143.003306 -234.270137 
L 139.928926 -233.191332 
L 136.854545 -232.154361 
L 133.780165 -231.051524 
L 130.705785 -229.667296 
L 127.631405 -227.787908 
L 124.557025 -225.26343 
L 121.482645 -221.92911 
L 118.408264 -217.690436 
L 115.333884 -212.521839 
L 112.259504 -206.409684 
L 109.185124 -199.405625 
L 106.110744 -191.654006 
L 103.036364 -183.348221 
L 99.961983 -174.711301 
L 96.887603 -165.968713 
L 93.813223 -157.282961 
L 90.738843 -148.808552 
L 87.664463 -140.690664 
L 84.590083 -133.060221 
L 81.515702 -126.006213 
L 78.441322 -119.502 
L 75.366942 -113.504021 
L 72.292562 -107.95998 
L 69.218182 -102.733145 
z
" id="mc46965e9f1" style="stroke:#ff7f0e;stroke-opacity:0.2;"/>
    </defs>
    <g clip-path="url(#p64dcc0ee5d)">
     <use style="fill:#ff7f0e;fill-opacity:0.2;stroke:#ff7f0e;stroke-opacity:0.2;" x="0" xlink:href="#mc46965e9f1" y="288"/>
    </g>
   </g>
   <g id="matplotlib.axis_1">
    <g id="xtick_1">
     <g id="line2d_1">
      <defs>
       <path d="M 0 0 
L 0 3.5 
" id="mbf69382c3c" style="stroke:#000000;stroke-width:0.8;"/>
      </defs>
      <g>
       <use style="stroke:#000000;stroke-width:0.8;" x="66.143802" xlink:href="#mbf69382c3c" y="252"/>
      </g>
     </g>
     <g id="text_1">
      <!-- 0 -->
      <defs>
       <path d="M 31.78125 66.40625 
Q 24.171875 66.40625 20.328125 58.90625 
Q 16.5 51.421875 16.5 36.375 
Q 16.5 21.390625 20.328125 13.890625 
Q 24.171875 6.390625 31.78125 6.390625 
Q 39.453125 6.390625 43.28125 13.890625 
Q 47.125 21.390625 47.125 36.375 
Q 47.125 51.421875 43.28125 58.90625 
Q 39.453125 66.40625 31.78125 66.40625 
z
M 31.78125 74.21875 
Q 44.046875 74.21875 50.515625 64.515625 
Q 56.984375 54.828125 56.984375 36.375 
Q 56.984375 17.96875 50.515625 8.265625 
Q 44.046875 -1.421875 31.78125 -1.421875 
Q 19.53125 -1.421875 13.0625 8.265625 
Q 6.59375 17.96875 6.59375 36.375 
Q 6.59375 54.828125 13.0625 64.515625 
Q 19.53125 74.21875 31.78125 74.21875 
z
" id="DejaVuSans-48"/>
      </defs>
      <g transform="translate(62.962552 266.598437)scale(0.1 -0.1)">
       <use xlink:href="#DejaVuSans-48"/>
      </g>
     </g>
    </g>
    <g id="xtick_2">
     <g id="line2d_2">
      <g>
       <use style="stroke:#000000;stroke-width:0.8;" x="127.631405" xlink:href="#mbf69382c3c" y="252"/>
      </g>
     </g>
     <g id="text_2">
      <!-- 20 -->
      <defs>
       <path d="M 19.1875 8.296875 
L 53.609375 8.296875 
L 53.609375 0 
L 7.328125 0 
L 7.328125 8.296875 
Q 12.9375 14.109375 22.625 23.890625 
Q 32.328125 33.6875 34.8125 36.53125 
Q 39.546875 41.84375 41.421875 45.53125 
Q 43.3125 49.21875 43.3125 52.78125 
Q 43.3125 58.59375 39.234375 62.25 
Q 35.15625 65.921875 28.609375 65.921875 
Q 23.96875 65.921875 18.8125 64.3125 
Q 13.671875 62.703125 7.8125 59.421875 
L 7.8125 69.390625 
Q 13.765625 71.78125 18.9375 73 
Q 24.125 74.21875 28.421875 74.21875 
Q 39.75 74.21875 46.484375 68.546875 
Q 53.21875 62.890625 53.21875 53.421875 
Q 53.21875 48.921875 51.53125 44.890625 
Q 49.859375 40.875 45.40625 35.40625 
Q 44.1875 33.984375 37.640625 27.21875 
Q 31.109375 20.453125 19.1875 8.296875 
z
" id="DejaVuSans-50"/>
      </defs>
      <g transform="translate(121.268905 266.598437)scale(0.1 -0.1)">
       <use xlink:href="#DejaVuSans-50"/>
       <use x="63.623047" xlink:href="#DejaVuSans-48"/>
      </g>
     </g>
    </g>
    <g id="xtick_3">
     <g id="line2d_3">
      <g>
       <use style="stroke:#000000;stroke-width:0.8;" x="189.119008" xlink:href="#mbf69382c3c" y="252"/>
      </g>
     </g>
     <g id="text_3">
      <!-- 40 -->
      <defs>
       <path d="M 37.796875 64.3125 
L 12.890625 25.390625 
L 37.796875 25.390625 
z
M 35.203125 72.90625 
L 47.609375 72.90625 
L 47.609375 25.390625 
L 58.015625 25.390625 
L 58.015625 17.1875 
L 47.609375 17.1875 
L 47.609375 0 
L 37.796875 0 
L 37.796875 17.1875 
L 4.890625 17.1875 
L 4.890625 26.703125 
z
" id="DejaVuSans-52"/>
      </defs>
      <g transform="translate(182.756508 266.598437)scale(0.1 -0.1)">
       <use xlink:href="#DejaVuSans-52"/>
       <use x="63.623047" xlink:href="#DejaVuSans-48"/>
      </g>
     </g>
    </g>
    <g id="xtick_4">
     <g id="line2d_4">
      <g>
       <use style="stroke:#000000;stroke-width:0.8;" x="250.606612" xlink:href="#mbf69382c3c" y="252"/>
      </g>
     </g>
     <g id="text_4">
      <!-- 60 -->
      <defs>
       <path d="M 33.015625 40.375 
Q 26.375 40.375 22.484375 35.828125 
Q 18.609375 31.296875 18.609375 23.390625 
Q 18.609375 15.53125 22.484375 10.953125 
Q 26.375 6.390625 33.015625 6.390625 
Q 39.65625 6.390625 43.53125 10.953125 
Q 47.40625 15.53125 47.40625 23.390625 
Q 47.40625 31.296875 43.53125 35.828125 
Q 39.65625 40.375 33.015625 40.375 
z
M 52.59375 71.296875 
L 52.59375 62.3125 
Q 48.875 64.0625 45.09375 64.984375 
Q 41.3125 65.921875 37.59375 65.921875 
Q 27.828125 65.921875 22.671875 59.328125 
Q 17.53125 52.734375 16.796875 39.40625 
Q 19.671875 43.65625 24.015625 45.921875 
Q 28.375 48.1875 33.59375 48.1875 
Q 44.578125 48.1875 50.953125 41.515625 
Q 57.328125 34.859375 57.328125 23.390625 
Q 57.328125 12.15625 50.6875 5.359375 
Q 44.046875 -1.421875 33.015625 -1.421875 
Q 20.359375 -1.421875 13.671875 8.265625 
Q 6.984375 17.96875 6.984375 36.375 
Q 6.984375 53.65625 15.1875 63.9375 
Q 23.390625 74.21875 37.203125 74.21875 
Q 40.921875 74.21875 44.703125 73.484375 
Q 48.484375 72.75 52.59375 71.296875 
z
" id="DejaVuSans-54"/>
      </defs>
      <g transform="translate(244.244112 266.598437)scale(0.1 -0.1)">
       <use xlink:href="#DejaVuSans-54"/>
       <use x="63.623047" xlink:href="#DejaVuSans-48"/>
      </g>
     </g>
    </g>
    <g id="xtick_5">
     <g id="line2d_5">
      <g>
       <use style="stroke:#000000;stroke-width:0.8;" x="312.094215" xlink:href="#mbf69382c3c" y="252"/>
      </g>
     </g>
     <g id="text_5">
      <!-- 80 -->
      <defs>
       <path d="M 31.78125 34.625 
Q 24.75 34.625 20.71875 30.859375 
Q 16.703125 27.09375 16.703125 20.515625 
Q 16.703125 13.921875 20.71875 10.15625 
Q 24.75 6.390625 31.78125 6.390625 
Q 38.8125 6.390625 42.859375 10.171875 
Q 46.921875 13.96875 46.921875 20.515625 
Q 46.921875 27.09375 42.890625 30.859375 
Q 38.875 34.625 31.78125 34.625 
z
M 21.921875 38.8125 
Q 15.578125 40.375 12.03125 44.71875 
Q 8.5 49.078125 8.5 55.328125 
Q 8.5 64.0625 14.71875 69.140625 
Q 20.953125 74.21875 31.78125 74.21875 
Q 42.671875 74.21875 48.875 69.140625 
Q 55.078125 64.0625 55.078125 55.328125 
Q 55.078125 49.078125 51.53125 44.71875 
Q 48 40.375 41.703125 38.8125 
Q 48.828125 37.15625 52.796875 32.3125 
Q 56.78125 27.484375 56.78125 20.515625 
Q 56.78125 9.90625 50.3125 4.234375 
Q 43.84375 -1.421875 31.78125 -1.421875 
Q 19.734375 -1.421875 13.25 4.234375 
Q 6.78125 9.90625 6.78125 20.515625 
Q 6.78125 27.484375 10.78125 32.3125 
Q 14.796875 37.15625 21.921875 38.8125 
z
M 18.3125 54.390625 
Q 18.3125 48.734375 21.84375 45.5625 
Q 25.390625 42.390625 31.78125 42.390625 
Q 38.140625 42.390625 41.71875 45.5625 
Q 45.3125 48.734375 45.3125 54.390625 
Q 45.3125 60.0625 41.71875 63.234375 
Q 38.140625 66.40625 31.78125 66.40625 
Q 25.390625 66.40625 21.84375 63.234375 
Q 18.3125 60.0625 18.3125 54.390625 
z
" id="DejaVuSans-56"/>
      </defs>
      <g transform="translate(305.731715 266.598437)scale(0.1 -0.1)">
       <use xlink:href="#DejaVuSans-56"/>
       <use x="63.623047" xlink:href="#DejaVuSans-48"/>
      </g>
     </g>
    </g>
    <g id="xtick_6">
     <g id="line2d_6">
      <g>
       <use style="stroke:#000000;stroke-width:0.8;" x="373.581818" xlink:href="#mbf69382c3c" y="252"/>
      </g>
     </g>
     <g id="text_6">
      <!-- 100 -->
      <defs>
       <path d="M 12.40625 8.296875 
L 28.515625 8.296875 
L 28.515625 63.921875 
L 10.984375 60.40625 
L 10.984375 69.390625 
L 28.421875 72.90625 
L 38.28125 72.90625 
L 38.28125 8.296875 
L 54.390625 8.296875 
L 54.390625 0 
L 12.40625 0 
z
" id="DejaVuSans-49"/>
      </defs>
      <g transform="translate(364.038068 266.598437)scale(0.1 -0.1)">
       <use xlink:href="#DejaVuSans-49"/>
       <use x="63.623047" xlink:href="#DejaVuSans-48"/>
       <use x="127.246094" xlink:href="#DejaVuSans-48"/>
      </g>
     </g>
    </g>
    <g id="text_7">
     <!-- ind -->
     <defs>
      <path d="M 9.421875 54.6875 
L 18.40625 54.6875 
L 18.40625 0 
L 9.421875 0 
z
M 9.421875 75.984375 
L 18.40625 75.984375 
L 18.40625 64.59375 
L 9.421875 64.59375 
z
" id="DejaVuSans-105"/>
      <path d="M 54.890625 33.015625 
L 54.890625 0 
L 45.90625 0 
L 45.90625 32.71875 
Q 45.90625 40.484375 42.875 44.328125 
Q 39.84375 48.1875 33.796875 48.1875 
Q 26.515625 48.1875 22.3125 43.546875 
Q 18.109375 38.921875 18.109375 30.90625 
L 18.109375 0 
L 9.078125 0 
L 9.078125 54.6875 
L 18.109375 54.6875 
L 18.109375 46.1875 
Q 21.34375 51.125 25.703125 53.5625 
Q 30.078125 56 35.796875 56 
Q 45.21875 56 50.046875 50.171875 
Q 54.890625 44.34375 54.890625 33.015625 
z
" id="DejaVuSans-110"/>
      <path d="M 45.40625 46.390625 
L 45.40625 75.984375 
L 54.390625 75.984375 
L 54.390625 0 
L 45.40625 0 
L 45.40625 8.203125 
Q 42.578125 3.328125 38.25 0.953125 
Q 33.9375 -1.421875 27.875 -1.421875 
Q 17.96875 -1.421875 11.734375 6.484375 
Q 5.515625 14.40625 5.515625 27.296875 
Q 5.515625 40.1875 11.734375 48.09375 
Q 17.96875 56 27.875 56 
Q 33.9375 56 38.25 53.625 
Q 42.578125 51.265625 45.40625 46.390625 
z
M 14.796875 27.296875 
Q 14.796875 17.390625 18.875 11.75 
Q 22.953125 6.109375 30.078125 6.109375 
Q 37.203125 6.109375 41.296875 11.75 
Q 45.40625 17.390625 45.40625 27.296875 
Q 45.40625 37.203125 41.296875 42.84375 
Q 37.203125 48.484375 30.078125 48.484375 
Q 22.953125 48.484375 18.875 42.84375 
Q 14.796875 37.203125 14.796875 27.296875 
z
" id="DejaVuSans-100"/>
     </defs>
     <g transform="translate(213.667969 280.276563)scale(0.1 -0.1)">
      <use xlink:href="#DejaVuSans-105"/>
      <use x="27.783203" xlink:href="#DejaVuSans-110"/>
      <use x="91.162109" xlink:href="#DejaVuSans-100"/>
     </g>
    </g>
   </g>
   <g id="matplotlib.axis_2">
    <g id="ytick_1">
     <g id="line2d_7">
      <defs>
       <path d="M 0 0 
L -3.5 0 
" id="m544bb21881" style="stroke:#000000;stroke-width:0.8;"/>
      </defs>
      <g>
       <use style="stroke:#000000;stroke-width:0.8;" x="54" xlink:href="#m544bb21881" y="238.070612"/>
      </g>
     </g>
     <g id="text_8">
      <!-- 0.30 -->
      <defs>
       <path d="M 10.6875 12.40625 
L 21 12.40625 
L 21 0 
L 10.6875 0 
z
" id="DejaVuSans-46"/>
       <path d="M 40.578125 39.3125 
Q 47.65625 37.796875 51.625 33 
Q 55.609375 28.21875 55.609375 21.1875 
Q 55.609375 10.40625 48.1875 4.484375 
Q 40.765625 -1.421875 27.09375 -1.421875 
Q 22.515625 -1.421875 17.65625 -0.515625 
Q 12.796875 0.390625 7.625 2.203125 
L 7.625 11.71875 
Q 11.71875 9.328125 16.59375 8.109375 
Q 21.484375 6.890625 26.8125 6.890625 
Q 36.078125 6.890625 40.9375 10.546875 
Q 45.796875 14.203125 45.796875 21.1875 
Q 45.796875 27.640625 41.28125 31.265625 
Q 36.765625 34.90625 28.71875 34.90625 
L 20.21875 34.90625 
L 20.21875 43.015625 
L 29.109375 43.015625 
Q 36.375 43.015625 40.234375 45.921875 
Q 44.09375 48.828125 44.09375 54.296875 
Q 44.09375 59.90625 40.109375 62.90625 
Q 36.140625 65.921875 28.71875 65.921875 
Q 24.65625 65.921875 20.015625 65.03125 
Q 15.375 64.15625 9.8125 62.3125 
L 9.8125 71.09375 
Q 15.4375 72.65625 20.34375 73.4375 
Q 25.25 74.21875 29.59375 74.21875 
Q 40.828125 74.21875 47.359375 69.109375 
Q 53.90625 64.015625 53.90625 55.328125 
Q 53.90625 49.265625 50.4375 45.09375 
Q 46.96875 40.921875 40.578125 39.3125 
z
" id="DejaVuSans-51"/>
      </defs>
      <g transform="translate(24.734375 241.869831)scale(0.1 -0.1)">
       <use xlink:href="#DejaVuSans-48"/>
       <use x="63.623047" xlink:href="#DejaVuSans-46"/>
       <use x="95.410156" xlink:href="#DejaVuSans-51"/>
       <use x="159.033203" xlink:href="#DejaVuSans-48"/>
      </g>
     </g>
    </g>
    <g id="ytick_2">
     <g id="line2d_8">
      <g>
       <use style="stroke:#000000;stroke-width:0.8;" x="54" xlink:href="#m544bb21881" y="204.986162"/>
      </g>
     </g>
     <g id="text_9">
      <!-- 0.35 -->
      <defs>
       <path d="M 10.796875 72.90625 
L 49.515625 72.90625 
L 49.515625 64.59375 
L 19.828125 64.59375 
L 19.828125 46.734375 
Q 21.96875 47.46875 24.109375 47.828125 
Q 26.265625 48.1875 28.421875 48.1875 
Q 40.625 48.1875 47.75 41.5 
Q 54.890625 34.8125 54.890625 23.390625 
Q 54.890625 11.625 47.5625 5.09375 
Q 40.234375 -1.421875 26.90625 -1.421875 
Q 22.3125 -1.421875 17.546875 -0.640625 
Q 12.796875 0.140625 7.71875 1.703125 
L 7.71875 11.625 
Q 12.109375 9.234375 16.796875 8.0625 
Q 21.484375 6.890625 26.703125 6.890625 
Q 35.15625 6.890625 40.078125 11.328125 
Q 45.015625 15.765625 45.015625 23.390625 
Q 45.015625 31 40.078125 35.4375 
Q 35.15625 39.890625 26.703125 39.890625 
Q 22.75 39.890625 18.8125 39.015625 
Q 14.890625 38.140625 10.796875 36.28125 
z
" id="DejaVuSans-53"/>
      </defs>
      <g transform="translate(24.734375 208.785381)scale(0.1 -0.1)">
       <use xlink:href="#DejaVuSans-48"/>
       <use x="63.623047" xlink:href="#DejaVuSans-46"/>
       <use x="95.410156" xlink:href="#DejaVuSans-51"/>
       <use x="159.033203" xlink:href="#DejaVuSans-53"/>
      </g>
     </g>
    </g>
    <g id="ytick_3">
     <g id="line2d_9">
      <g>
       <use style="stroke:#000000;stroke-width:0.8;" x="54" xlink:href="#m544bb21881" y="171.901713"/>
      </g>
     </g>
     <g id="text_10">
      <!-- 0.40 -->
      <g transform="translate(24.734375 175.700931)scale(0.1 -0.1)">
       <use xlink:href="#DejaVuSans-48"/>
       <use x="63.623047" xlink:href="#DejaVuSans-46"/>
       <use x="95.410156" xlink:href="#DejaVuSans-52"/>
       <use x="159.033203" xlink:href="#DejaVuSans-48"/>
      </g>
     </g>
    </g>
    <g id="ytick_4">
     <g id="line2d_10">
      <g>
       <use style="stroke:#000000;stroke-width:0.8;" x="54" xlink:href="#m544bb21881" y="138.817263"/>
      </g>
     </g>
     <g id="text_11">
      <!-- 0.45 -->
      <g transform="translate(24.734375 142.616482)scale(0.1 -0.1)">
       <use xlink:href="#DejaVuSans-48"/>
       <use x="63.623047" xlink:href="#DejaVuSans-46"/>
       <use x="95.410156" xlink:href="#DejaVuSans-52"/>
       <use x="159.033203" xlink:href="#DejaVuSans-53"/>
      </g>
     </g>
    </g>
    <g id="ytick_5">
     <g id="line2d_11">
      <g>
       <use style="stroke:#000000;stroke-width:0.8;" x="54" xlink:href="#m544bb21881" y="105.732813"/>
      </g>
     </g>
     <g id="text_12">
      <!-- 0.50 -->
      <g transform="translate(24.734375 109.532032)scale(0.1 -0.1)">
       <use xlink:href="#DejaVuSans-48"/>
       <use x="63.623047" xlink:href="#DejaVuSans-46"/>
       <use x="95.410156" xlink:href="#DejaVuSans-53"/>
       <use x="159.033203" xlink:href="#DejaVuSans-48"/>
      </g>
     </g>
    </g>
    <g id="ytick_6">
     <g id="line2d_12">
      <g>
       <use style="stroke:#000000;stroke-width:0.8;" x="54" xlink:href="#m544bb21881" y="72.648364"/>
      </g>
     </g>
     <g id="text_13">
      <!-- 0.55 -->
      <g transform="translate(24.734375 76.447583)scale(0.1 -0.1)">
       <use xlink:href="#DejaVuSans-48"/>
       <use x="63.623047" xlink:href="#DejaVuSans-46"/>
       <use x="95.410156" xlink:href="#DejaVuSans-53"/>
       <use x="159.033203" xlink:href="#DejaVuSans-53"/>
      </g>
     </g>
    </g>
    <g id="ytick_7">
     <g id="line2d_13">
      <g>
       <use style="stroke:#000000;stroke-width:0.8;" x="54" xlink:href="#m544bb21881" y="39.563914"/>
      </g>
     </g>
     <g id="text_14">
      <!-- 0.60 -->
      <g transform="translate(24.734375 43.363133)scale(0.1 -0.1)">
       <use xlink:href="#DejaVuSans-48"/>
       <use x="63.623047" xlink:href="#DejaVuSans-46"/>
       <use x="95.410156" xlink:href="#DejaVuSans-54"/>
       <use x="159.033203" xlink:href="#DejaVuSans-48"/>
      </g>
     </g>
    </g>
    <g id="text_15">
     <!-- fa -->
     <defs>
      <path d="M 37.109375 75.984375 
L 37.109375 68.5 
L 28.515625 68.5 
Q 23.6875 68.5 21.796875 66.546875 
Q 19.921875 64.59375 19.921875 59.515625 
L 19.921875 54.6875 
L 34.71875 54.6875 
L 34.71875 47.703125 
L 19.921875 47.703125 
L 19.921875 0 
L 10.890625 0 
L 10.890625 47.703125 
L 2.296875 47.703125 
L 2.296875 54.6875 
L 10.890625 54.6875 
L 10.890625 58.5 
Q 10.890625 67.625 15.140625 71.796875 
Q 19.390625 75.984375 28.609375 75.984375 
z
" id="DejaVuSans-102"/>
      <path d="M 34.28125 27.484375 
Q 23.390625 27.484375 19.1875 25 
Q 14.984375 22.515625 14.984375 16.5 
Q 14.984375 11.71875 18.140625 8.90625 
Q 21.296875 6.109375 26.703125 6.109375 
Q 34.1875 6.109375 38.703125 11.40625 
Q 43.21875 16.703125 43.21875 25.484375 
L 43.21875 27.484375 
z
M 52.203125 31.203125 
L 52.203125 0 
L 43.21875 0 
L 43.21875 8.296875 
Q 40.140625 3.328125 35.546875 0.953125 
Q 30.953125 -1.421875 24.3125 -1.421875 
Q 15.921875 -1.421875 10.953125 3.296875 
Q 6 8.015625 6 15.921875 
Q 6 25.140625 12.171875 29.828125 
Q 18.359375 34.515625 30.609375 34.515625 
L 43.21875 34.515625 
L 43.21875 35.40625 
Q 43.21875 41.609375 39.140625 45 
Q 35.0625 48.390625 27.6875 48.390625 
Q 23 48.390625 18.546875 47.265625 
Q 14.109375 46.140625 10.015625 43.890625 
L 10.015625 52.203125 
Q 14.9375 54.109375 19.578125 55.046875 
Q 24.21875 56 28.609375 56 
Q 40.484375 56 46.34375 49.84375 
Q 52.203125 43.703125 52.203125 31.203125 
z
" id="DejaVuSans-97"/>
     </defs>
     <g transform="translate(18.654688 148.104219)rotate(-90)scale(0.1 -0.1)">
      <use xlink:href="#DejaVuSans-102"/>
      <use x="35.205078" xlink:href="#DejaVuSans-97"/>
     </g>
    </g>
   </g>
   <g id="line2d_14">
    <path clip-path="url(#p64dcc0ee5d)" d="M 69.218182 213.691384 
L 72.292562 209.124707 
L 75.366942 204.102043 
L 78.441322 198.502124 
L 81.515702 192.233832 
L 84.590083 185.27143 
L 87.664463 177.640018 
L 90.738843 169.444274 
L 93.813223 160.835905 
L 96.887603 151.994027 
L 99.961983 143.118642 
L 103.036364 134.423067 
L 106.110744 126.072008 
L 109.185124 118.259923 
L 112.259504 111.173502 
L 115.333884 104.891676 
L 118.408264 99.463483 
L 121.482645 94.881216 
L 124.557025 91.071878 
L 127.631405 87.946498 
L 130.705785 85.353454 
L 133.780165 83.163798 
L 136.854545 81.234191 
L 139.928926 79.4549 
L 143.003306 77.728011 
L 146.077686 76.040905 
L 149.152066 74.360733 
L 152.226446 72.744564 
L 155.300826 71.273674 
L 158.375207 70.023848 
L 161.449587 69.078485 
L 164.523967 68.599982 
L 167.598347 68.655697 
L 170.672727 69.327813 
L 173.747107 70.65008 
L 176.821488 72.596609 
L 179.895868 75.151846 
L 182.970248 78.26506 
L 186.044628 81.87995 
L 189.119008 85.931729 
L 192.193388 90.357569 
L 195.267769 95.06028 
L 198.342149 99.95473 
L 201.416529 104.991198 
L 204.490909 110.104498 
L 207.565289 115.202898 
L 210.639669 120.180064 
L 213.71405 124.968143 
L 216.78843 129.469184 
L 219.86281 133.585068 
L 222.93719 137.214489 
L 226.01157 140.285514 
L 229.08595 142.735343 
L 232.160331 144.509551 
L 235.234711 145.588923 
L 238.309091 145.987154 
L 241.383471 145.74413 
L 244.457851 144.94295 
L 247.532231 143.68243 
L 250.606612 142.070928 
L 253.680992 140.205104 
L 256.755372 138.187768 
L 259.829752 136.12922 
L 262.904132 134.124107 
L 265.978512 132.209469 
L 269.052893 130.460089 
L 272.127273 128.905339 
L 275.201653 127.54502 
L 278.276033 126.409094 
L 281.350413 125.495477 
L 284.424793 124.80213 
L 287.499174 124.311082 
L 290.573554 124.017937 
L 293.647934 123.92583 
L 296.722314 124.002642 
L 299.796694 124.218958 
L 302.871074 124.534967 
L 305.945455 124.964176 
L 309.019835 125.480568 
L 312.094215 126.059003 
L 315.168595 126.676062 
L 318.242975 127.298169 
L 321.317355 127.906183 
L 324.391736 128.479899 
L 327.466116 129.032503 
L 330.540496 129.616273 
L 333.614876 130.336777 
L 336.689256 131.277798 
L 339.763636 132.538035 
L 342.838017 134.179255 
L 345.912397 136.188025 
L 348.986777 138.570278 
L 352.061157 141.329065 
L 355.135537 144.538924 
L 358.209917 148.284371 
L 361.284298 152.666448 
L 364.358678 157.919384 
L 367.433058 164.395439 
L 370.507438 172.202216 
L 373.581818 180.999873 
" style="fill:none;stroke:#1f77b4;stroke-linecap:square;stroke-width:1.5;"/>
   </g>
   <g id="line2d_15">
    <path clip-path="url(#p64dcc0ee5d)" d="M 69.218182 213.691609 
L 72.292562 209.167763 
L 75.366942 204.17148 
L 78.441322 198.583677 
L 81.515702 192.343088 
L 84.590083 185.410515 
L 87.664463 177.792838 
L 90.738843 169.595086 
L 93.813223 160.993541 
L 96.887603 152.161592 
L 99.961983 143.289986 
L 103.036364 134.578616 
L 106.110744 126.216109 
L 109.185124 118.397702 
L 112.259504 111.293774 
L 115.333884 105.009957 
L 118.408264 99.567395 
L 121.482645 94.970586 
L 124.557025 91.164906 
L 127.631405 88.039439 
L 130.705785 85.454875 
L 133.780165 83.285578 
L 136.854545 81.350822 
L 139.928926 79.524145 
L 143.003306 77.768861 
L 146.077686 76.049512 
L 149.152066 74.34902 
L 152.226446 72.697336 
L 155.300826 71.177355 
L 158.375207 69.910501 
L 161.449587 68.968769 
L 164.523967 68.475922 
L 167.598347 68.552672 
L 170.672727 69.278185 
L 173.747107 70.677551 
L 176.821488 72.710727 
L 179.895868 75.351166 
L 182.970248 78.540273 
L 186.044628 82.177853 
L 189.119008 86.224879 
L 192.193388 90.627547 
L 195.267769 95.301448 
L 198.342149 100.189003 
L 201.416529 105.207773 
L 204.490909 110.300034 
L 207.565289 115.375203 
L 210.639669 120.327603 
L 213.71405 125.101386 
L 216.78843 129.58858 
L 219.86281 133.673291 
L 222.93719 137.266168 
L 226.01157 140.310779 
L 229.08595 142.7144 
L 232.160331 144.433404 
L 235.234711 145.444607 
L 238.309091 145.791137 
L 241.383471 145.536408 
L 244.457851 144.752428 
L 247.532231 143.511442 
L 250.606612 141.928574 
L 253.680992 140.122356 
L 256.755372 138.183729 
L 259.829752 136.181059 
L 262.904132 134.19449 
L 265.978512 132.302913 
L 269.052893 130.559482 
L 272.127273 129.00334 
L 275.201653 127.65701 
L 278.276033 126.538758 
L 281.350413 125.648846 
L 284.424793 124.972878 
L 287.499174 124.494577 
L 290.573554 124.204461 
L 293.647934 124.082174 
L 296.722314 124.106567 
L 299.796694 124.276149 
L 302.871074 124.580444 
L 305.945455 124.999945 
L 309.019835 125.534797 
L 312.094215 126.140059 
L 315.168595 126.738405 
L 318.242975 127.326996 
L 321.317355 127.9118 
L 324.391736 128.460773 
L 327.466116 128.986503 
L 330.540496 129.543382 
L 333.614876 130.23279 
L 336.689256 131.135475 
L 339.763636 132.370125 
L 342.838017 133.977815 
L 345.912397 135.976654 
L 348.986777 138.335982 
L 352.061157 141.085573 
L 355.135537 144.279858 
L 358.209917 148.009807 
L 361.284298 152.382534 
L 364.358678 157.620807 
L 367.433058 164.122272 
L 370.507438 171.94834 
L 373.581818 180.809855 
" style="fill:none;stroke:#ff7f0e;stroke-dasharray:6,2.25;stroke-dashoffset:0;stroke-width:1.5;"/>
   </g>
   <g id="line2d_16"/>
   <g id="line2d_17"/>
   <g id="line2d_18"/>
   <g id="patch_3">
    <path d="M 54 252 
L 54 34.56 
" style="fill:none;stroke:#000000;stroke-linecap:square;stroke-linejoin:miter;stroke-width:0.8;"/>
   </g>
   <g id="patch_4">
    <path d="M 388.8 252 
L 388.8 34.56 
" style="fill:none;stroke:#000000;stroke-linecap:square;stroke-linejoin:miter;stroke-width:0.8;"/>
   </g>
   <g id="patch_5">
    <path d="M 54 252 
L 388.8 252 
" style="fill:none;stroke:#000000;stroke-linecap:square;stroke-linejoin:miter;stroke-width:0.8;"/>
   </g>
   <g id="patch_6">
    <path d="M 54 34.56 
L 388.8 34.56 
" style="fill:none;stroke:#000000;stroke-linecap:square;stroke-linejoin:miter;stroke-width:0.8;"/>
   </g>
   <g id="legend_1">
    <g id="patch_7">
     <path d="M 287.957813 87.150625 
L 381.8 87.150625 
Q 383.8 87.150625 383.8 85.150625 
L 383.8 41.56 
Q 383.8 39.56 381.8 39.56 
L 287.957813 39.56 
Q 285.957813 39.56 285.957813 41.56 
L 285.957813 85.150625 
Q 285.957813 87.150625 287.957813 87.150625 
z
" style="fill:#ffffff;opacity:0.8;stroke:#cccccc;stroke-linejoin:miter;"/>
    </g>
    <g id="line2d_19">
     <path d="M 289.957813 47.658437 
L 309.957813 47.658437 
" style="fill:none;"/>
    </g>
    <g id="line2d_20"/>
    <g id="text_16">
     <!-- analysis -->
     <defs>
      <path d="M 9.421875 75.984375 
L 18.40625 75.984375 
L 18.40625 0 
L 9.421875 0 
z
" id="DejaVuSans-108"/>
      <path d="M 32.171875 -5.078125 
Q 28.375 -14.84375 24.75 -17.8125 
Q 21.140625 -20.796875 15.09375 -20.796875 
L 7.90625 -20.796875 
L 7.90625 -13.28125 
L 13.1875 -13.28125 
Q 16.890625 -13.28125 18.9375 -11.515625 
Q 21 -9.765625 23.484375 -3.21875 
L 25.09375 0.875 
L 2.984375 54.6875 
L 12.5 54.6875 
L 29.59375 11.921875 
L 46.6875 54.6875 
L 56.203125 54.6875 
z
" id="DejaVuSans-121"/>
      <path d="M 44.28125 53.078125 
L 44.28125 44.578125 
Q 40.484375 46.53125 36.375 47.5 
Q 32.28125 48.484375 27.875 48.484375 
Q 21.1875 48.484375 17.84375 46.4375 
Q 14.5 44.390625 14.5 40.28125 
Q 14.5 37.15625 16.890625 35.375 
Q 19.28125 33.59375 26.515625 31.984375 
L 29.59375 31.296875 
Q 39.15625 29.25 43.1875 25.515625 
Q 47.21875 21.78125 47.21875 15.09375 
Q 47.21875 7.46875 41.1875 3.015625 
Q 35.15625 -1.421875 24.609375 -1.421875 
Q 20.21875 -1.421875 15.453125 -0.5625 
Q 10.6875 0.296875 5.421875 2 
L 5.421875 11.28125 
Q 10.40625 8.6875 15.234375 7.390625 
Q 20.0625 6.109375 24.8125 6.109375 
Q 31.15625 6.109375 34.5625 8.28125 
Q 37.984375 10.453125 37.984375 14.40625 
Q 37.984375 18.0625 35.515625 20.015625 
Q 33.0625 21.96875 24.703125 23.78125 
L 21.578125 24.515625 
Q 13.234375 26.265625 9.515625 29.90625 
Q 5.8125 33.546875 5.8125 39.890625 
Q 5.8125 47.609375 11.28125 51.796875 
Q 16.75 56 26.8125 56 
Q 31.78125 56 36.171875 55.265625 
Q 40.578125 54.546875 44.28125 53.078125 
z
" id="DejaVuSans-115"/>
     </defs>
     <g transform="translate(317.957813 51.158437)scale(0.1 -0.1)">
      <use xlink:href="#DejaVuSans-97"/>
      <use x="61.279297" xlink:href="#DejaVuSans-110"/>
      <use x="124.658203" xlink:href="#DejaVuSans-97"/>
      <use x="185.9375" xlink:href="#DejaVuSans-108"/>
      <use x="213.720703" xlink:href="#DejaVuSans-121"/>
      <use x="272.900391" xlink:href="#DejaVuSans-115"/>
      <use x="325" xlink:href="#DejaVuSans-105"/>
      <use x="352.783203" xlink:href="#DejaVuSans-115"/>
     </g>
    </g>
    <g id="line2d_21">
     <path d="M 289.957813 62.336562 
L 309.957813 62.336562 
" style="fill:none;stroke:#1f77b4;stroke-linecap:square;stroke-width:1.5;"/>
    </g>
    <g id="line2d_22"/>
    <g id="text_17">
     <!-- compute_01 -->
     <defs>
      <path d="M 48.78125 52.59375 
L 48.78125 44.1875 
Q 44.96875 46.296875 41.140625 47.34375 
Q 37.3125 48.390625 33.40625 48.390625 
Q 24.65625 48.390625 19.8125 42.84375 
Q 14.984375 37.3125 14.984375 27.296875 
Q 14.984375 17.28125 19.8125 11.734375 
Q 24.65625 6.203125 33.40625 6.203125 
Q 37.3125 6.203125 41.140625 7.25 
Q 44.96875 8.296875 48.78125 10.40625 
L 48.78125 2.09375 
Q 45.015625 0.34375 40.984375 -0.53125 
Q 36.96875 -1.421875 32.421875 -1.421875 
Q 20.0625 -1.421875 12.78125 6.34375 
Q 5.515625 14.109375 5.515625 27.296875 
Q 5.515625 40.671875 12.859375 48.328125 
Q 20.21875 56 33.015625 56 
Q 37.15625 56 41.109375 55.140625 
Q 45.0625 54.296875 48.78125 52.59375 
z
" id="DejaVuSans-99"/>
      <path d="M 30.609375 48.390625 
Q 23.390625 48.390625 19.1875 42.75 
Q 14.984375 37.109375 14.984375 27.296875 
Q 14.984375 17.484375 19.15625 11.84375 
Q 23.34375 6.203125 30.609375 6.203125 
Q 37.796875 6.203125 41.984375 11.859375 
Q 46.1875 17.53125 46.1875 27.296875 
Q 46.1875 37.015625 41.984375 42.703125 
Q 37.796875 48.390625 30.609375 48.390625 
z
M 30.609375 56 
Q 42.328125 56 49.015625 48.375 
Q 55.71875 40.765625 55.71875 27.296875 
Q 55.71875 13.875 49.015625 6.21875 
Q 42.328125 -1.421875 30.609375 -1.421875 
Q 18.84375 -1.421875 12.171875 6.21875 
Q 5.515625 13.875 5.515625 27.296875 
Q 5.515625 40.765625 12.171875 48.375 
Q 18.84375 56 30.609375 56 
z
" id="DejaVuSans-111"/>
      <path d="M 52 44.1875 
Q 55.375 50.25 60.0625 53.125 
Q 64.75 56 71.09375 56 
Q 79.640625 56 84.28125 50.015625 
Q 88.921875 44.046875 88.921875 33.015625 
L 88.921875 0 
L 79.890625 0 
L 79.890625 32.71875 
Q 79.890625 40.578125 77.09375 44.375 
Q 74.3125 48.1875 68.609375 48.1875 
Q 61.625 48.1875 57.5625 43.546875 
Q 53.515625 38.921875 53.515625 30.90625 
L 53.515625 0 
L 44.484375 0 
L 44.484375 32.71875 
Q 44.484375 40.625 41.703125 44.40625 
Q 38.921875 48.1875 33.109375 48.1875 
Q 26.21875 48.1875 22.15625 43.53125 
Q 18.109375 38.875 18.109375 30.90625 
L 18.109375 0 
L 9.078125 0 
L 9.078125 54.6875 
L 18.109375 54.6875 
L 18.109375 46.1875 
Q 21.1875 51.21875 25.484375 53.609375 
Q 29.78125 56 35.6875 56 
Q 41.65625 56 45.828125 52.96875 
Q 50 49.953125 52 44.1875 
z
" id="DejaVuSans-109"/>
      <path d="M 18.109375 8.203125 
L 18.109375 -20.796875 
L 9.078125 -20.796875 
L 9.078125 54.6875 
L 18.109375 54.6875 
L 18.109375 46.390625 
Q 20.953125 51.265625 25.265625 53.625 
Q 29.59375 56 35.59375 56 
Q 45.5625 56 51.78125 48.09375 
Q 58.015625 40.1875 58.015625 27.296875 
Q 58.015625 14.40625 51.78125 6.484375 
Q 45.5625 -1.421875 35.59375 -1.421875 
Q 29.59375 -1.421875 25.265625 0.953125 
Q 20.953125 3.328125 18.109375 8.203125 
z
M 48.6875 27.296875 
Q 48.6875 37.203125 44.609375 42.84375 
Q 40.53125 48.484375 33.40625 48.484375 
Q 26.265625 48.484375 22.1875 42.84375 
Q 18.109375 37.203125 18.109375 27.296875 
Q 18.109375 17.390625 22.1875 11.75 
Q 26.265625 6.109375 33.40625 6.109375 
Q 40.53125 6.109375 44.609375 11.75 
Q 48.6875 17.390625 48.6875 27.296875 
z
" id="DejaVuSans-112"/>
      <path d="M 8.5 21.578125 
L 8.5 54.6875 
L 17.484375 54.6875 
L 17.484375 21.921875 
Q 17.484375 14.15625 20.5 10.265625 
Q 23.53125 6.390625 29.59375 6.390625 
Q 36.859375 6.390625 41.078125 11.03125 
Q 45.3125 15.671875 45.3125 23.6875 
L 45.3125 54.6875 
L 54.296875 54.6875 
L 54.296875 0 
L 45.3125 0 
L 45.3125 8.40625 
Q 42.046875 3.421875 37.71875 1 
Q 33.40625 -1.421875 27.6875 -1.421875 
Q 18.265625 -1.421875 13.375 4.4375 
Q 8.5 10.296875 8.5 21.578125 
z
M 31.109375 56 
z
" id="DejaVuSans-117"/>
      <path d="M 18.3125 70.21875 
L 18.3125 54.6875 
L 36.8125 54.6875 
L 36.8125 47.703125 
L 18.3125 47.703125 
L 18.3125 18.015625 
Q 18.3125 11.328125 20.140625 9.421875 
Q 21.96875 7.515625 27.59375 7.515625 
L 36.8125 7.515625 
L 36.8125 0 
L 27.59375 0 
Q 17.1875 0 13.234375 3.875 
Q 9.28125 7.765625 9.28125 18.015625 
L 9.28125 47.703125 
L 2.6875 47.703125 
L 2.6875 54.6875 
L 9.28125 54.6875 
L 9.28125 70.21875 
z
" id="DejaVuSans-116"/>
      <path d="M 56.203125 29.59375 
L 56.203125 25.203125 
L 14.890625 25.203125 
Q 15.484375 15.921875 20.484375 11.0625 
Q 25.484375 6.203125 34.421875 6.203125 
Q 39.59375 6.203125 44.453125 7.46875 
Q 49.3125 8.734375 54.109375 11.28125 
L 54.109375 2.78125 
Q 49.265625 0.734375 44.1875 -0.34375 
Q 39.109375 -1.421875 33.890625 -1.421875 
Q 20.796875 -1.421875 13.15625 6.1875 
Q 5.515625 13.8125 5.515625 26.8125 
Q 5.515625 40.234375 12.765625 48.109375 
Q 20.015625 56 32.328125 56 
Q 43.359375 56 49.78125 48.890625 
Q 56.203125 41.796875 56.203125 29.59375 
z
M 47.21875 32.234375 
Q 47.125 39.59375 43.09375 43.984375 
Q 39.0625 48.390625 32.421875 48.390625 
Q 24.90625 48.390625 20.390625 44.140625 
Q 15.875 39.890625 15.1875 32.171875 
z
" id="DejaVuSans-101"/>
      <path d="M 50.984375 -16.609375 
L 50.984375 -23.578125 
L -0.984375 -23.578125 
L -0.984375 -16.609375 
z
" id="DejaVuSans-95"/>
     </defs>
     <g transform="translate(317.957813 65.836562)scale(0.1 -0.1)">
      <use xlink:href="#DejaVuSans-99"/>
      <use x="54.980469" xlink:href="#DejaVuSans-111"/>
      <use x="116.162109" xlink:href="#DejaVuSans-109"/>
      <use x="213.574219" xlink:href="#DejaVuSans-112"/>
      <use x="277.050781" xlink:href="#DejaVuSans-117"/>
      <use x="340.429688" xlink:href="#DejaVuSans-116"/>
      <use x="379.638672" xlink:href="#DejaVuSans-101"/>
      <use x="441.162109" xlink:href="#DejaVuSans-95"/>
      <use x="491.162109" xlink:href="#DejaVuSans-48"/>
      <use x="554.785156" xlink:href="#DejaVuSans-49"/>
     </g>
    </g>
    <g id="line2d_23">
     <path d="M 289.957813 77.292812 
L 309.957813 77.292812 
" style="fill:none;stroke:#ff7f0e;stroke-dasharray:6,2.25;stroke-dashoffset:0;stroke-width:1.5;"/>
    </g>
    <g id="line2d_24"/>
    <g id="text_18">
     <!-- compute_02 -->
     <g transform="translate(317.957813 80.792812)scale(0.1 -0.1)">
      <use xlink:href="#DejaVuSans-99"/>
      <use x="54.980469" xlink:href="#DejaVuSans-111"/>
      <use x="116.162109" xlink:href="#DejaVuSans-109"/>
      <use x="213.574219" xlink:href="#DejaVuSans-112"/>
      <use x="277.050781" xlink:href="#DejaVuSans-117"/>
      <use x="340.429688" xlink:href="#DejaVuSans-116"/>
      <use x="379.638672" xlink:href="#DejaVuSans-101"/>
      <use x="441.162109" xlink:href="#DejaVuSans-95"/>
      <use x="491.162109" xlink:href="#DejaVuSans-48"/>
      <use x="554.785156" xlink:href="#DejaVuSans-50"/>
     </g>
    </g>
   </g>
  </g>
 </g>
 <defs>
  <clipPath id="p64dcc0ee5d">
   <rect height="217.44" width="334.8" x="54" y="34.56"/>
  </clipPath>
 </defs>
</svg>
