<?xml version="1.0" encoding="utf-8" standalone="no"?>
<!DOCTYPE svg PUBLIC "-//W3C//DTD SVG 1.1//EN"
  "http://www.w3.org/Graphics/SVG/1.1/DTD/svg11.dtd">
<!-- Created with matplotlib (https://matplotlib.org/) -->
<svg height="288pt" version="1.1" viewBox="0 0 432 288" width="432pt" xmlns="http://www.w3.org/2000/svg" xmlns:xlink="http://www.w3.org/1999/xlink">
 <defs>
  <style type="text/css">
*{stroke-linecap:butt;stroke-linejoin:round;}
  </style>
 </defs>
 <g id="figure_1">
  <g id="patch_1">
   <path d="M 0 288 
L 432 288 
L 432 0 
L 0 0 
z
" style="fill:#ffffff;"/>
  </g>
  <g id="axes_1">
   <g id="patch_2">
    <path d="M 54 252 
L 388.8 252 
L 388.8 34.56 
L 54 34.56 
z
" style="fill:#ffffff;"/>
   </g>
   <g id="PolyCollection_1">
    <defs>
     <path d="M 69.218182 -58.99123 
L 69.218182 -45.883636 
L 72.292562 -51.944955 
L 75.366942 -58.764718 
L 78.441322 -65.351813 
L 81.515702 -73.45663 
L 84.590083 -82.501207 
L 87.664463 -91.946588 
L 90.738843 -102.465279 
L 93.813223 -113.648591 
L 96.887603 -124.419874 
L 99.961983 -135.711837 
L 103.036364 -146.734686 
L 106.110744 -157.713157 
L 109.185124 -167.646022 
L 112.259504 -177.006322 
L 115.333884 -184.327785 
L 118.408264 -191.656758 
L 121.482645 -197.33687 
L 124.557025 -201.934304 
L 127.631405 -206.640763 
L 130.705785 -209.876115 
L 133.780165 -213.504162 
L 136.854545 -215.324171 
L 139.928926 -218.116466 
L 143.003306 -220.598454 
L 146.077686 -222.981201 
L 149.152066 -224.720836 
L 152.226446 -226.826631 
L 155.300826 -228.563849 
L 158.375207 -230.565537 
L 161.449587 -231.84129 
L 164.523967 -232.238562 
L 167.598347 -232.157702 
L 170.672727 -231.091293 
L 173.747107 -229.013982 
L 176.821488 -227.032266 
L 179.895868 -223.621815 
L 182.970248 -219.282486 
L 186.044628 -215.068238 
L 189.119008 -209.7225 
L 192.193388 -204.165425 
L 195.267769 -198.328562 
L 198.342149 -192.205016 
L 201.416529 -185.059001 
L 204.490909 -178.575847 
L 207.565289 -171.6292 
L 210.639669 -165.63962 
L 213.71405 -159.102127 
L 216.78843 -153.543039 
L 219.86281 -148.318013 
L 222.93719 -142.992313 
L 226.01157 -138.897094 
L 229.08595 -136.022687 
L 232.160331 -134.340701 
L 235.234711 -132.365977 
L 238.309091 -131.89696 
L 241.383471 -132.063937 
L 244.457851 -131.540044 
L 247.532231 -134.470109 
L 250.606612 -135.210057 
L 253.680992 -138.461373 
L 256.755372 -141.0808 
L 259.829752 -144.041034 
L 262.904132 -146.490854 
L 265.978512 -148.881493 
L 269.052893 -151.434563 
L 272.127273 -152.401885 
L 275.201653 -155.602747 
L 278.276033 -156.599497 
L 281.350413 -158.095683 
L 284.424793 -158.781309 
L 287.499174 -159.729391 
L 290.573554 -161.289197 
L 293.647934 -161.083686 
L 296.722314 -161.741674 
L 299.796694 -161.221629 
L 302.871074 -161.20086 
L 305.945455 -160.952207 
L 309.019835 -159.918171 
L 312.094215 -159.475207 
L 315.168595 -158.87389 
L 318.242975 -158.014336 
L 321.317355 -156.942383 
L 324.391736 -156.58299 
L 327.466116 -155.526672 
L 330.540496 -155.081295 
L 333.614876 -153.513309 
L 336.689256 -152.698899 
L 339.763636 -150.76524 
L 342.838017 -148.022682 
L 345.912397 -145.231943 
L 348.986777 -142.764042 
L 352.061157 -139.324674 
L 355.135537 -135.136138 
L 358.209917 -130.317625 
L 361.284298 -125.304778 
L 364.358678 -117.699943 
L 367.433058 -109.500702 
L 370.507438 -99.469698 
L 373.581818 -87.838375 
L 373.581818 -101.331027 
L 373.581818 -101.331027 
L 370.507438 -112.582785 
L 367.433058 -121.336351 
L 364.358678 -129.67611 
L 361.284298 -136.003091 
L 358.209917 -142.230365 
L 355.135537 -146.720592 
L 352.061157 -150.523189 
L 348.986777 -154.021108 
L 345.912397 -157.339802 
L 342.838017 -159.381239 
L 339.763636 -161.558583 
L 336.689256 -163.410811 
L 333.614876 -164.34439 
L 330.540496 -165.410384 
L 327.466116 -165.936654 
L 324.391736 -166.462772 
L 321.317355 -167.222922 
L 318.242975 -168.147577 
L 315.168595 -168.618903 
L 312.094215 -169.37784 
L 309.019835 -170.195762 
L 305.945455 -170.917741 
L 302.871074 -171.895171 
L 299.796694 -172.155066 
L 296.722314 -172.595651 
L 293.647934 -173.05627 
L 290.573554 -173.167822 
L 287.499174 -172.729171 
L 284.424793 -172.903494 
L 281.350413 -172.318776 
L 278.276033 -170.908096 
L 275.201653 -169.849866 
L 272.127273 -168.129799 
L 269.052893 -166.435159 
L 265.978512 -164.507217 
L 262.904132 -161.662211 
L 259.829752 -160.183591 
L 256.755372 -157.404877 
L 253.680992 -154.850735 
L 250.606612 -152.38402 
L 247.532231 -149.587553 
L 244.457851 -148.487221 
L 241.383471 -146.910836 
L 238.309091 -147.317706 
L 235.234711 -147.194904 
L 232.160331 -148.571605 
L 229.08595 -151.00253 
L 226.01157 -153.472252 
L 222.93719 -157.61334 
L 219.86281 -161.506927 
L 216.78843 -167.126714 
L 213.71405 -172.524064 
L 210.639669 -178.310499 
L 207.565289 -184.378851 
L 204.490909 -191.640675 
L 201.416529 -197.239776 
L 198.342149 -203.459748 
L 195.267769 -210.319465 
L 192.193388 -216.218375 
L 189.119008 -221.17859 
L 186.044628 -226.642772 
L 182.970248 -231.006124 
L 179.895868 -235.346659 
L 176.821488 -238.318359 
L 173.747107 -240.580326 
L 170.672727 -242.205634 
L 167.598347 -243.556364 
L 164.523967 -242.953138 
L 161.449587 -242.407582 
L 158.375207 -241.532455 
L 155.300826 -239.689739 
L 152.226446 -237.607567 
L 149.152066 -235.35112 
L 146.077686 -233.373891 
L 143.003306 -231.703334 
L 139.928926 -229.391337 
L 136.854545 -227.535634 
L 133.780165 -224.786521 
L 130.705785 -222.482817 
L 127.631405 -219.469641 
L 124.557025 -215.711456 
L 121.482645 -210.578673 
L 118.408264 -205.146034 
L 115.333884 -198.114945 
L 112.259504 -190.372184 
L 109.185124 -181.784092 
L 106.110744 -171.213131 
L 103.036364 -160.613283 
L 99.961983 -149.904787 
L 96.887603 -138.248783 
L 93.813223 -127.068197 
L 90.738843 -116.429356 
L 87.664463 -105.757833 
L 84.590083 -96.044927 
L 81.515702 -87.23345 
L 78.441322 -79.080772 
L 75.366942 -72.294336 
L 72.292562 -65.703775 
L 69.218182 -58.99123 
z
" id="m41042f1cfb" style="stroke:#1f77b4;stroke-opacity:0.2;"/>
    </defs>
    <g clip-path="url(#p48c1fde0a2)">
     <use style="fill:#1f77b4;fill-opacity:0.2;stroke:#1f77b4;stroke-opacity:0.2;" x="0" xlink:href="#m41042f1cfb" y="288"/>
    </g>
   </g>
   <g id="PolyCollection_2">
    <defs>
     <path d="M 69.218182 -60.171343 
L 69.218182 -46.730392 
L 72.292562 -51.711189 
L 75.366942 -57.925221 
L 78.441322 -65.09407 
L 81.515702 -72.737575 
L 84.590083 -82.560454 
L 87.664463 -91.838242 
L 90.738843 -101.802999 
L 93.813223 -112.66071 
L 96.887603 -124.287988 
L 99.961983 -135.394118 
L 103.036364 -146.479834 
L 106.110744 -157.662723 
L 109.185124 -167.645931 
L 112.259504 -176.229526 
L 115.333884 -184.720714 
L 118.408264 -190.853288 
L 121.482645 -196.810707 
L 124.557025 -201.567518 
L 127.631405 -206.137003 
L 130.705785 -209.76071 
L 133.780165 -212.633802 
L 136.854545 -215.526617 
L 139.928926 -217.983412 
L 143.003306 -220.672162 
L 146.077686 -222.510038 
L 149.152066 -224.890679 
L 152.226446 -226.833997 
L 155.300826 -229.115342 
L 158.375207 -230.696706 
L 161.449587 -231.688752 
L 164.523967 -232.151842 
L 167.598347 -232.459253 
L 170.672727 -230.941143 
L 173.747107 -229.293882 
L 176.821488 -226.657566 
L 179.895868 -223.394778 
L 182.970248 -219.040279 
L 186.044628 -214.591957 
L 189.119008 -209.073244 
L 192.193388 -203.756134 
L 195.267769 -197.322679 
L 198.342149 -190.886053 
L 201.416529 -184.533156 
L 204.490909 -178.296982 
L 207.565289 -171.508002 
L 210.639669 -165.622544 
L 213.71405 -159.013227 
L 216.78843 -153.104576 
L 219.86281 -148.36139 
L 222.93719 -143.187555 
L 226.01157 -139.634268 
L 229.08595 -136.20695 
L 232.160331 -134.058635 
L 235.234711 -131.718401 
L 238.309091 -132.229579 
L 241.383471 -132.222413 
L 244.457851 -133.058177 
L 247.532231 -134.487101 
L 250.606612 -136.111495 
L 253.680992 -137.982706 
L 256.755372 -140.640824 
L 259.829752 -143.268701 
L 262.904132 -145.916869 
L 265.978512 -148.138856 
L 269.052893 -150.691295 
L 272.127273 -153.121711 
L 275.201653 -154.737121 
L 278.276033 -156.470967 
L 281.350413 -158.344448 
L 284.424793 -159.033578 
L 287.499174 -159.829629 
L 290.573554 -160.6196 
L 293.647934 -161.237897 
L 296.722314 -161.577512 
L 299.796694 -161.023529 
L 302.871074 -161.012594 
L 305.945455 -160.547396 
L 309.019835 -159.663922 
L 312.094215 -159.401097 
L 315.168595 -158.810713 
L 318.242975 -157.925064 
L 321.317355 -157.376881 
L 324.391736 -156.332106 
L 327.466116 -156.114977 
L 330.540496 -154.733356 
L 333.614876 -153.833122 
L 336.689256 -152.776304 
L 339.763636 -151.088718 
L 342.838017 -149.35203 
L 345.912397 -146.470857 
L 348.986777 -142.959839 
L 352.061157 -139.866876 
L 355.135537 -135.889588 
L 358.209917 -130.908491 
L 361.284298 -125.442925 
L 364.358678 -118.043462 
L 367.433058 -109.728097 
L 370.507438 -99.837657 
L 373.581818 -87.817601 
L 373.581818 -101.842101 
L 373.581818 -101.842101 
L 370.507438 -112.773744 
L 367.433058 -121.759596 
L 364.358678 -129.773413 
L 361.284298 -136.242007 
L 358.209917 -142.144627 
L 355.135537 -147.059746 
L 352.061157 -151.222217 
L 348.986777 -154.235718 
L 345.912397 -157.71693 
L 342.838017 -159.880778 
L 339.763636 -162.038707 
L 336.689256 -162.605348 
L 333.614876 -164.156123 
L 330.540496 -165.194224 
L 327.466116 -165.786859 
L 324.391736 -166.489246 
L 321.317355 -166.80281 
L 318.242975 -167.670492 
L 315.168595 -168.583784 
L 312.094215 -169.097207 
L 309.019835 -170.234822 
L 305.945455 -171.125449 
L 302.871074 -172.011163 
L 299.796694 -171.875619 
L 296.722314 -172.442441 
L 293.647934 -172.970348 
L 290.573554 -173.332434 
L 287.499174 -172.94634 
L 284.424793 -172.823013 
L 281.350413 -171.768514 
L 278.276033 -170.513723 
L 275.201653 -169.88107 
L 272.127273 -168.302205 
L 269.052893 -165.960202 
L 265.978512 -164.254351 
L 262.904132 -161.837658 
L 259.829752 -159.511152 
L 256.755372 -156.993818 
L 253.680992 -155.035803 
L 250.606612 -152.709547 
L 247.532231 -150.587108 
L 244.457851 -148.076473 
L 241.383471 -147.572624 
L 238.309091 -146.929965 
L 235.234711 -147.115242 
L 232.160331 -148.398662 
L 229.08595 -150.479386 
L 226.01157 -153.455885 
L 222.93719 -156.819555 
L 219.86281 -162.285245 
L 216.78843 -166.166024 
L 213.71405 -171.647997 
L 210.639669 -178.46687 
L 207.565289 -184.18624 
L 204.490909 -191.155345 
L 201.416529 -197.108542 
L 198.342149 -203.535273 
L 195.267769 -209.858492 
L 192.193388 -215.572518 
L 189.119008 -221.45604 
L 186.044628 -225.844855 
L 182.970248 -231.185605 
L 179.895868 -234.813878 
L 176.821488 -238.17454 
L 173.747107 -240.851303 
L 170.672727 -242.713512 
L 167.598347 -243.414454 
L 164.523967 -243.451728 
L 161.449587 -242.889979 
L 158.375207 -241.61055 
L 155.300826 -239.680967 
L 152.226446 -237.707644 
L 149.152066 -235.958404 
L 146.077686 -233.82305 
L 143.003306 -231.28247 
L 139.928926 -229.364696 
L 136.854545 -227.244769 
L 133.780165 -224.637855 
L 130.705785 -222.317635 
L 127.631405 -219.725441 
L 124.557025 -215.607921 
L 121.482645 -210.61517 
L 118.408264 -204.618775 
L 115.333884 -198.081368 
L 112.259504 -190.269068 
L 109.185124 -180.886314 
L 106.110744 -170.671743 
L 103.036364 -160.675208 
L 99.961983 -149.217488 
L 96.887603 -137.924592 
L 93.813223 -127.314907 
L 90.738843 -116.159496 
L 87.664463 -105.462948 
L 84.590083 -96.605615 
L 81.515702 -86.621612 
L 78.441322 -79.018787 
L 75.366942 -72.413861 
L 72.292562 -65.340636 
L 69.218182 -60.171343 
z
" id="m553e03183e" style="stroke:#ff7f0e;stroke-opacity:0.2;"/>
    </defs>
    <g clip-path="url(#p48c1fde0a2)">
     <use style="fill:#ff7f0e;fill-opacity:0.2;stroke:#ff7f0e;stroke-opacity:0.2;" x="0" xlink:href="#m553e03183e" y="288"/>
    </g>
   </g>
   <g id="matplotlib.axis_1">
    <g id="xtick_1">
     <g id="line2d_1">
      <defs>
       <path d="M 0 0 
L 0 3.5 
" id="med93f145aa" style="stroke:#000000;stroke-width:0.8;"/>
      </defs>
      <g>
       <use style="stroke:#000000;stroke-width:0.8;" x="66.143802" xlink:href="#med93f145aa" y="252"/>
      </g>
     </g>
     <g id="text_1">
      <!-- 0 -->
      <defs>
       <path d="M 31.78125 66.40625 
Q 24.171875 66.40625 20.328125 58.90625 
Q 16.5 51.421875 16.5 36.375 
Q 16.5 21.390625 20.328125 13.890625 
Q 24.171875 6.390625 31.78125 6.390625 
Q 39.453125 6.390625 43.28125 13.890625 
Q 47.125 21.390625 47.125 36.375 
Q 47.125 51.421875 43.28125 58.90625 
Q 39.453125 66.40625 31.78125 66.40625 
z
M 31.78125 74.21875 
Q 44.046875 74.21875 50.515625 64.515625 
Q 56.984375 54.828125 56.984375 36.375 
Q 56.984375 17.96875 50.515625 8.265625 
Q 44.046875 -1.421875 31.78125 -1.421875 
Q 19.53125 -1.421875 13.0625 8.265625 
Q 6.59375 17.96875 6.59375 36.375 
Q 6.59375 54.828125 13.0625 64.515625 
Q 19.53125 74.21875 31.78125 74.21875 
z
" id="DejaVuSans-48"/>
      </defs>
      <g transform="translate(62.962552 266.598437)scale(0.1 -0.1)">
       <use xlink:href="#DejaVuSans-48"/>
      </g>
     </g>
    </g>
    <g id="xtick_2">
     <g id="line2d_2">
      <g>
       <use style="stroke:#000000;stroke-width:0.8;" x="127.631405" xlink:href="#med93f145aa" y="252"/>
      </g>
     </g>
     <g id="text_2">
      <!-- 20 -->
      <defs>
       <path d="M 19.1875 8.296875 
L 53.609375 8.296875 
L 53.609375 0 
L 7.328125 0 
L 7.328125 8.296875 
Q 12.9375 14.109375 22.625 23.890625 
Q 32.328125 33.6875 34.8125 36.53125 
Q 39.546875 41.84375 41.421875 45.53125 
Q 43.3125 49.21875 43.3125 52.78125 
Q 43.3125 58.59375 39.234375 62.25 
Q 35.15625 65.921875 28.609375 65.921875 
Q 23.96875 65.921875 18.8125 64.3125 
Q 13.671875 62.703125 7.8125 59.421875 
L 7.8125 69.390625 
Q 13.765625 71.78125 18.9375 73 
Q 24.125 74.21875 28.421875 74.21875 
Q 39.75 74.21875 46.484375 68.546875 
Q 53.21875 62.890625 53.21875 53.421875 
Q 53.21875 48.921875 51.53125 44.890625 
Q 49.859375 40.875 45.40625 35.40625 
Q 44.1875 33.984375 37.640625 27.21875 
Q 31.109375 20.453125 19.1875 8.296875 
z
" id="DejaVuSans-50"/>
      </defs>
      <g transform="translate(121.268905 266.598437)scale(0.1 -0.1)">
       <use xlink:href="#DejaVuSans-50"/>
       <use x="63.623047" xlink:href="#DejaVuSans-48"/>
      </g>
     </g>
    </g>
    <g id="xtick_3">
     <g id="line2d_3">
      <g>
       <use style="stroke:#000000;stroke-width:0.8;" x="189.119008" xlink:href="#med93f145aa" y="252"/>
      </g>
     </g>
     <g id="text_3">
      <!-- 40 -->
      <defs>
       <path d="M 37.796875 64.3125 
L 12.890625 25.390625 
L 37.796875 25.390625 
z
M 35.203125 72.90625 
L 47.609375 72.90625 
L 47.609375 25.390625 
L 58.015625 25.390625 
L 58.015625 17.1875 
L 47.609375 17.1875 
L 47.609375 0 
L 37.796875 0 
L 37.796875 17.1875 
L 4.890625 17.1875 
L 4.890625 26.703125 
z
" id="DejaVuSans-52"/>
      </defs>
      <g transform="translate(182.756508 266.598437)scale(0.1 -0.1)">
       <use xlink:href="#DejaVuSans-52"/>
       <use x="63.623047" xlink:href="#DejaVuSans-48"/>
      </g>
     </g>
    </g>
    <g id="xtick_4">
     <g id="line2d_4">
      <g>
       <use style="stroke:#000000;stroke-width:0.8;" x="250.606612" xlink:href="#med93f145aa" y="252"/>
      </g>
     </g>
     <g id="text_4">
      <!-- 60 -->
      <defs>
       <path d="M 33.015625 40.375 
Q 26.375 40.375 22.484375 35.828125 
Q 18.609375 31.296875 18.609375 23.390625 
Q 18.609375 15.53125 22.484375 10.953125 
Q 26.375 6.390625 33.015625 6.390625 
Q 39.65625 6.390625 43.53125 10.953125 
Q 47.40625 15.53125 47.40625 23.390625 
Q 47.40625 31.296875 43.53125 35.828125 
Q 39.65625 40.375 33.015625 40.375 
z
M 52.59375 71.296875 
L 52.59375 62.3125 
Q 48.875 64.0625 45.09375 64.984375 
Q 41.3125 65.921875 37.59375 65.921875 
Q 27.828125 65.921875 22.671875 59.328125 
Q 17.53125 52.734375 16.796875 39.40625 
Q 19.671875 43.65625 24.015625 45.921875 
Q 28.375 48.1875 33.59375 48.1875 
Q 44.578125 48.1875 50.953125 41.515625 
Q 57.328125 34.859375 57.328125 23.390625 
Q 57.328125 12.15625 50.6875 5.359375 
Q 44.046875 -1.421875 33.015625 -1.421875 
Q 20.359375 -1.421875 13.671875 8.265625 
Q 6.984375 17.96875 6.984375 36.375 
Q 6.984375 53.65625 15.1875 63.9375 
Q 23.390625 74.21875 37.203125 74.21875 
Q 40.921875 74.21875 44.703125 73.484375 
Q 48.484375 72.75 52.59375 71.296875 
z
" id="DejaVuSans-54"/>
      </defs>
      <g transform="translate(244.244112 266.598437)scale(0.1 -0.1)">
       <use xlink:href="#DejaVuSans-54"/>
       <use x="63.623047" xlink:href="#DejaVuSans-48"/>
      </g>
     </g>
    </g>
    <g id="xtick_5">
     <g id="line2d_5">
      <g>
       <use style="stroke:#000000;stroke-width:0.8;" x="312.094215" xlink:href="#med93f145aa" y="252"/>
      </g>
     </g>
     <g id="text_5">
      <!-- 80 -->
      <defs>
       <path d="M 31.78125 34.625 
Q 24.75 34.625 20.71875 30.859375 
Q 16.703125 27.09375 16.703125 20.515625 
Q 16.703125 13.921875 20.71875 10.15625 
Q 24.75 6.390625 31.78125 6.390625 
Q 38.8125 6.390625 42.859375 10.171875 
Q 46.921875 13.96875 46.921875 20.515625 
Q 46.921875 27.09375 42.890625 30.859375 
Q 38.875 34.625 31.78125 34.625 
z
M 21.921875 38.8125 
Q 15.578125 40.375 12.03125 44.71875 
Q 8.5 49.078125 8.5 55.328125 
Q 8.5 64.0625 14.71875 69.140625 
Q 20.953125 74.21875 31.78125 74.21875 
Q 42.671875 74.21875 48.875 69.140625 
Q 55.078125 64.0625 55.078125 55.328125 
Q 55.078125 49.078125 51.53125 44.71875 
Q 48 40.375 41.703125 38.8125 
Q 48.828125 37.15625 52.796875 32.3125 
Q 56.78125 27.484375 56.78125 20.515625 
Q 56.78125 9.90625 50.3125 4.234375 
Q 43.84375 -1.421875 31.78125 -1.421875 
Q 19.734375 -1.421875 13.25 4.234375 
Q 6.78125 9.90625 6.78125 20.515625 
Q 6.78125 27.484375 10.78125 32.3125 
Q 14.796875 37.15625 21.921875 38.8125 
z
M 18.3125 54.390625 
Q 18.3125 48.734375 21.84375 45.5625 
Q 25.390625 42.390625 31.78125 42.390625 
Q 38.140625 42.390625 41.71875 45.5625 
Q 45.3125 48.734375 45.3125 54.390625 
Q 45.3125 60.0625 41.71875 63.234375 
Q 38.140625 66.40625 31.78125 66.40625 
Q 25.390625 66.40625 21.84375 63.234375 
Q 18.3125 60.0625 18.3125 54.390625 
z
" id="DejaVuSans-56"/>
      </defs>
      <g transform="translate(305.731715 266.598437)scale(0.1 -0.1)">
       <use xlink:href="#DejaVuSans-56"/>
       <use x="63.623047" xlink:href="#DejaVuSans-48"/>
      </g>
     </g>
    </g>
    <g id="xtick_6">
     <g id="line2d_6">
      <g>
       <use style="stroke:#000000;stroke-width:0.8;" x="373.581818" xlink:href="#med93f145aa" y="252"/>
      </g>
     </g>
     <g id="text_6">
      <!-- 100 -->
      <defs>
       <path d="M 12.40625 8.296875 
L 28.515625 8.296875 
L 28.515625 63.921875 
L 10.984375 60.40625 
L 10.984375 69.390625 
L 28.421875 72.90625 
L 38.28125 72.90625 
L 38.28125 8.296875 
L 54.390625 8.296875 
L 54.390625 0 
L 12.40625 0 
z
" id="DejaVuSans-49"/>
      </defs>
      <g transform="translate(364.038068 266.598437)scale(0.1 -0.1)">
       <use xlink:href="#DejaVuSans-49"/>
       <use x="63.623047" xlink:href="#DejaVuSans-48"/>
       <use x="127.246094" xlink:href="#DejaVuSans-48"/>
      </g>
     </g>
    </g>
    <g id="text_7">
     <!-- ind -->
     <defs>
      <path d="M 9.421875 54.6875 
L 18.40625 54.6875 
L 18.40625 0 
L 9.421875 0 
z
M 9.421875 75.984375 
L 18.40625 75.984375 
L 18.40625 64.59375 
L 9.421875 64.59375 
z
" id="DejaVuSans-105"/>
      <path d="M 54.890625 33.015625 
L 54.890625 0 
L 45.90625 0 
L 45.90625 32.71875 
Q 45.90625 40.484375 42.875 44.328125 
Q 39.84375 48.1875 33.796875 48.1875 
Q 26.515625 48.1875 22.3125 43.546875 
Q 18.109375 38.921875 18.109375 30.90625 
L 18.109375 0 
L 9.078125 0 
L 9.078125 54.6875 
L 18.109375 54.6875 
L 18.109375 46.1875 
Q 21.34375 51.125 25.703125 53.5625 
Q 30.078125 56 35.796875 56 
Q 45.21875 56 50.046875 50.171875 
Q 54.890625 44.34375 54.890625 33.015625 
z
" id="DejaVuSans-110"/>
      <path d="M 45.40625 46.390625 
L 45.40625 75.984375 
L 54.390625 75.984375 
L 54.390625 0 
L 45.40625 0 
L 45.40625 8.203125 
Q 42.578125 3.328125 38.25 0.953125 
Q 33.9375 -1.421875 27.875 -1.421875 
Q 17.96875 -1.421875 11.734375 6.484375 
Q 5.515625 14.40625 5.515625 27.296875 
Q 5.515625 40.1875 11.734375 48.09375 
Q 17.96875 56 27.875 56 
Q 33.9375 56 38.25 53.625 
Q 42.578125 51.265625 45.40625 46.390625 
z
M 14.796875 27.296875 
Q 14.796875 17.390625 18.875 11.75 
Q 22.953125 6.109375 30.078125 6.109375 
Q 37.203125 6.109375 41.296875 11.75 
Q 45.40625 17.390625 45.40625 27.296875 
Q 45.40625 37.203125 41.296875 42.84375 
Q 37.203125 48.484375 30.078125 48.484375 
Q 22.953125 48.484375 18.875 42.84375 
Q 14.796875 37.203125 14.796875 27.296875 
z
" id="DejaVuSans-100"/>
     </defs>
     <g transform="translate(213.667969 280.276563)scale(0.1 -0.1)">
      <use xlink:href="#DejaVuSans-105"/>
      <use x="27.783203" xlink:href="#DejaVuSans-110"/>
      <use x="91.162109" xlink:href="#DejaVuSans-100"/>
     </g>
    </g>
   </g>
   <g id="matplotlib.axis_2">
    <g id="ytick_1">
     <g id="line2d_7">
      <defs>
       <path d="M 0 0 
L -3.5 0 
" id="m76ea450d3a" style="stroke:#000000;stroke-width:0.8;"/>
      </defs>
      <g>
       <use style="stroke:#000000;stroke-width:0.8;" x="54" xlink:href="#m76ea450d3a" y="224.056569"/>
      </g>
     </g>
     <g id="text_8">
      <!-- 0.35 -->
      <defs>
       <path d="M 10.6875 12.40625 
L 21 12.40625 
L 21 0 
L 10.6875 0 
z
" id="DejaVuSans-46"/>
       <path d="M 40.578125 39.3125 
Q 47.65625 37.796875 51.625 33 
Q 55.609375 28.21875 55.609375 21.1875 
Q 55.609375 10.40625 48.1875 4.484375 
Q 40.765625 -1.421875 27.09375 -1.421875 
Q 22.515625 -1.421875 17.65625 -0.515625 
Q 12.796875 0.390625 7.625 2.203125 
L 7.625 11.71875 
Q 11.71875 9.328125 16.59375 8.109375 
Q 21.484375 6.890625 26.8125 6.890625 
Q 36.078125 6.890625 40.9375 10.546875 
Q 45.796875 14.203125 45.796875 21.1875 
Q 45.796875 27.640625 41.28125 31.265625 
Q 36.765625 34.90625 28.71875 34.90625 
L 20.21875 34.90625 
L 20.21875 43.015625 
L 29.109375 43.015625 
Q 36.375 43.015625 40.234375 45.921875 
Q 44.09375 48.828125 44.09375 54.296875 
Q 44.09375 59.90625 40.109375 62.90625 
Q 36.140625 65.921875 28.71875 65.921875 
Q 24.65625 65.921875 20.015625 65.03125 
Q 15.375 64.15625 9.8125 62.3125 
L 9.8125 71.09375 
Q 15.4375 72.65625 20.34375 73.4375 
Q 25.25 74.21875 29.59375 74.21875 
Q 40.828125 74.21875 47.359375 69.109375 
Q 53.90625 64.015625 53.90625 55.328125 
Q 53.90625 49.265625 50.4375 45.09375 
Q 46.96875 40.921875 40.578125 39.3125 
z
" id="DejaVuSans-51"/>
       <path d="M 10.796875 72.90625 
L 49.515625 72.90625 
L 49.515625 64.59375 
L 19.828125 64.59375 
L 19.828125 46.734375 
Q 21.96875 47.46875 24.109375 47.828125 
Q 26.265625 48.1875 28.421875 48.1875 
Q 40.625 48.1875 47.75 41.5 
Q 54.890625 34.8125 54.890625 23.390625 
Q 54.890625 11.625 47.5625 5.09375 
Q 40.234375 -1.421875 26.90625 -1.421875 
Q 22.3125 -1.421875 17.546875 -0.640625 
Q 12.796875 0.140625 7.71875 1.703125 
L 7.71875 11.625 
Q 12.109375 9.234375 16.796875 8.0625 
Q 21.484375 6.890625 26.703125 6.890625 
Q 35.15625 6.890625 40.078125 11.328125 
Q 45.015625 15.765625 45.015625 23.390625 
Q 45.015625 31 40.078125 35.4375 
Q 35.15625 39.890625 26.703125 39.890625 
Q 22.75 39.890625 18.8125 39.015625 
Q 14.890625 38.140625 10.796875 36.28125 
z
" id="DejaVuSans-53"/>
      </defs>
      <g transform="translate(24.734375 227.855788)scale(0.1 -0.1)">
       <use xlink:href="#DejaVuSans-48"/>
       <use x="63.623047" xlink:href="#DejaVuSans-46"/>
       <use x="95.410156" xlink:href="#DejaVuSans-51"/>
       <use x="159.033203" xlink:href="#DejaVuSans-53"/>
      </g>
     </g>
    </g>
    <g id="ytick_2">
     <g id="line2d_8">
      <g>
       <use style="stroke:#000000;stroke-width:0.8;" x="54" xlink:href="#m76ea450d3a" y="181.924389"/>
      </g>
     </g>
     <g id="text_9">
      <!-- 0.40 -->
      <g transform="translate(24.734375 185.723608)scale(0.1 -0.1)">
       <use xlink:href="#DejaVuSans-48"/>
       <use x="63.623047" xlink:href="#DejaVuSans-46"/>
       <use x="95.410156" xlink:href="#DejaVuSans-52"/>
       <use x="159.033203" xlink:href="#DejaVuSans-48"/>
      </g>
     </g>
    </g>
    <g id="ytick_3">
     <g id="line2d_9">
      <g>
       <use style="stroke:#000000;stroke-width:0.8;" x="54" xlink:href="#m76ea450d3a" y="139.792209"/>
      </g>
     </g>
     <g id="text_10">
      <!-- 0.45 -->
      <g transform="translate(24.734375 143.591427)scale(0.1 -0.1)">
       <use xlink:href="#DejaVuSans-48"/>
       <use x="63.623047" xlink:href="#DejaVuSans-46"/>
       <use x="95.410156" xlink:href="#DejaVuSans-52"/>
       <use x="159.033203" xlink:href="#DejaVuSans-53"/>
      </g>
     </g>
    </g>
    <g id="ytick_4">
     <g id="line2d_10">
      <g>
       <use style="stroke:#000000;stroke-width:0.8;" x="54" xlink:href="#m76ea450d3a" y="97.660028"/>
      </g>
     </g>
     <g id="text_11">
      <!-- 0.50 -->
      <g transform="translate(24.734375 101.459247)scale(0.1 -0.1)">
       <use xlink:href="#DejaVuSans-48"/>
       <use x="63.623047" xlink:href="#DejaVuSans-46"/>
       <use x="95.410156" xlink:href="#DejaVuSans-53"/>
       <use x="159.033203" xlink:href="#DejaVuSans-48"/>
      </g>
     </g>
    </g>
    <g id="ytick_5">
     <g id="line2d_11">
      <g>
       <use style="stroke:#000000;stroke-width:0.8;" x="54" xlink:href="#m76ea450d3a" y="55.527848"/>
      </g>
     </g>
     <g id="text_12">
      <!-- 0.55 -->
      <g transform="translate(24.734375 59.327067)scale(0.1 -0.1)">
       <use xlink:href="#DejaVuSans-48"/>
       <use x="63.623047" xlink:href="#DejaVuSans-46"/>
       <use x="95.410156" xlink:href="#DejaVuSans-53"/>
       <use x="159.033203" xlink:href="#DejaVuSans-53"/>
      </g>
     </g>
    </g>
    <g id="text_13">
     <!-- fa -->
     <defs>
      <path d="M 37.109375 75.984375 
L 37.109375 68.5 
L 28.515625 68.5 
Q 23.6875 68.5 21.796875 66.546875 
Q 19.921875 64.59375 19.921875 59.515625 
L 19.921875 54.6875 
L 34.71875 54.6875 
L 34.71875 47.703125 
L 19.921875 47.703125 
L 19.921875 0 
L 10.890625 0 
L 10.890625 47.703125 
L 2.296875 47.703125 
L 2.296875 54.6875 
L 10.890625 54.6875 
L 10.890625 58.5 
Q 10.890625 67.625 15.140625 71.796875 
Q 19.390625 75.984375 28.609375 75.984375 
z
" id="DejaVuSans-102"/>
      <path d="M 34.28125 27.484375 
Q 23.390625 27.484375 19.1875 25 
Q 14.984375 22.515625 14.984375 16.5 
Q 14.984375 11.71875 18.140625 8.90625 
Q 21.296875 6.109375 26.703125 6.109375 
Q 34.1875 6.109375 38.703125 11.40625 
Q 43.21875 16.703125 43.21875 25.484375 
L 43.21875 27.484375 
z
M 52.203125 31.203125 
L 52.203125 0 
L 43.21875 0 
L 43.21875 8.296875 
Q 40.140625 3.328125 35.546875 0.953125 
Q 30.953125 -1.421875 24.3125 -1.421875 
Q 15.921875 -1.421875 10.953125 3.296875 
Q 6 8.015625 6 15.921875 
Q 6 25.140625 12.171875 29.828125 
Q 18.359375 34.515625 30.609375 34.515625 
L 43.21875 34.515625 
L 43.21875 35.40625 
Q 43.21875 41.609375 39.140625 45 
Q 35.0625 48.390625 27.6875 48.390625 
Q 23 48.390625 18.546875 47.265625 
Q 14.109375 46.140625 10.015625 43.890625 
L 10.015625 52.203125 
Q 14.9375 54.109375 19.578125 55.046875 
Q 24.21875 56 28.609375 56 
Q 40.484375 56 46.34375 49.84375 
Q 52.203125 43.703125 52.203125 31.203125 
z
" id="DejaVuSans-97"/>
     </defs>
     <g transform="translate(18.654688 148.104219)rotate(-90)scale(0.1 -0.1)">
      <use xlink:href="#DejaVuSans-102"/>
      <use x="35.205078" xlink:href="#DejaVuSans-97"/>
     </g>
    </g>
   </g>
   <g id="line2d_12">
    <path clip-path="url(#p48c1fde0a2)" d="M 69.218182 235.142441 
L 72.292562 229.326898 
L 75.366942 222.930666 
L 78.441322 215.799316 
L 81.515702 207.816811 
L 84.590083 198.950374 
L 87.664463 189.23197 
L 90.738843 178.794905 
L 93.813223 167.832373 
L 96.887603 156.572473 
L 99.961983 145.269902 
L 103.036364 134.196315 
L 106.110744 123.56146 
L 109.185124 113.612974 
L 112.259504 104.588603 
L 115.333884 96.588862 
L 118.408264 89.676201 
L 121.482645 83.840803 
L 124.557025 78.989712 
L 127.631405 75.009622 
L 130.705785 71.707448 
L 133.780165 68.918978 
L 136.854545 66.461674 
L 139.928926 64.195794 
L 143.003306 61.996646 
L 146.077686 59.848161 
L 149.152066 57.708506 
L 152.226446 55.650357 
L 155.300826 53.777216 
L 158.375207 52.185596 
L 161.449587 50.981701 
L 164.523967 50.37234 
L 167.598347 50.443292 
L 170.672727 51.299214 
L 173.747107 52.983086 
L 176.821488 55.46194 
L 179.895868 58.715968 
L 182.970248 62.680563 
L 186.044628 67.284032 
L 189.119008 72.443866 
L 192.193388 78.080057 
L 195.267769 84.068837 
L 198.342149 90.30179 
L 201.416529 96.715601 
L 204.490909 103.227254 
L 207.565289 109.719934 
L 210.639669 116.058223 
L 213.71405 122.155718 
L 216.78843 127.887675 
L 219.86281 133.129145 
L 222.93719 137.751118 
L 226.01157 141.661988 
L 229.08595 144.781781 
L 232.160331 147.041189 
L 235.234711 148.41574 
L 238.309091 148.922876 
L 241.383471 148.613393 
L 244.457851 147.593111 
L 247.532231 145.987872 
L 250.606612 143.935666 
L 253.680992 141.559588 
L 256.755372 138.990563 
L 259.829752 136.369056 
L 262.904132 133.815598 
L 265.978512 131.377356 
L 269.052893 129.149567 
L 272.127273 127.169633 
L 275.201653 125.437303 
L 278.276033 123.99073 
L 281.350413 122.827263 
L 284.424793 121.944304 
L 287.499174 121.318968 
L 290.573554 120.945655 
L 293.647934 120.828359 
L 296.722314 120.926177 
L 299.796694 121.20165 
L 302.871074 121.604079 
L 305.945455 122.150665 
L 309.019835 122.808277 
L 312.094215 123.544899 
L 315.168595 124.330707 
L 318.242975 125.122944 
L 321.317355 125.897234 
L 324.391736 126.627846 
L 327.466116 127.331573 
L 330.540496 128.074989 
L 333.614876 128.992532 
L 336.689256 130.190898 
L 339.763636 131.795776 
L 342.838017 133.885827 
L 345.912397 136.443943 
L 348.986777 139.47768 
L 352.061157 142.990923 
L 355.135537 147.078594 
L 358.209917 151.848322 
L 361.284298 157.428782 
L 364.358678 164.118259 
L 367.433058 172.365345 
L 370.507438 182.307072 
L 373.581818 193.510657 
" style="fill:none;stroke:#1f77b4;stroke-linecap:square;stroke-width:1.5;"/>
   </g>
   <g id="line2d_13">
    <path clip-path="url(#p48c1fde0a2)" d="M 69.218182 235.142728 
L 72.292562 229.381728 
L 75.366942 223.019093 
L 78.441322 215.903171 
L 81.515702 207.955946 
L 84.590083 199.127495 
L 87.664463 189.426583 
L 90.738843 178.986961 
L 93.813223 168.033118 
L 96.887603 156.785862 
L 99.961983 145.488105 
L 103.036364 134.394402 
L 106.110744 123.74497 
L 109.185124 113.788433 
L 112.259504 104.741767 
L 115.333884 96.73949 
L 118.408264 89.808529 
L 121.482645 83.954614 
L 124.557025 79.10818 
L 127.631405 75.127979 
L 130.705785 71.836605 
L 133.780165 69.074063 
L 136.854545 66.610201 
L 139.928926 64.283976 
L 143.003306 62.048668 
L 146.077686 59.859122 
L 149.152066 57.69359 
L 152.226446 55.590213 
L 155.300826 53.654557 
L 158.375207 52.041252 
L 161.449587 50.841981 
L 164.523967 50.214354 
L 167.598347 50.312092 
L 170.672727 51.236014 
L 173.747107 53.018069 
L 176.821488 55.607266 
L 179.895868 58.969797 
L 182.970248 63.03104 
L 186.044628 67.663403 
L 189.119008 72.817185 
L 192.193388 78.423867 
L 195.267769 84.375958 
L 198.342149 90.600131 
L 201.416529 96.991403 
L 204.490909 103.476265 
L 207.565289 109.93936 
L 210.639669 116.246111 
L 213.71405 122.325399 
L 216.78843 128.039723 
L 219.86281 133.241495 
L 222.93719 137.816929 
L 226.01157 141.694162 
L 229.08595 144.755111 
L 232.160331 146.944218 
L 235.234711 148.231957 
L 238.309091 148.673254 
L 241.383471 148.348864 
L 244.457851 147.350485 
L 247.532231 145.770122 
L 250.606612 143.754381 
L 253.680992 141.454211 
L 256.755372 138.985419 
L 259.829752 136.435072 
L 262.904132 133.905228 
L 265.978512 131.496354 
L 269.052893 129.27614 
L 272.127273 127.294434 
L 275.201653 125.579919 
L 278.276033 124.155854 
L 281.350413 123.022575 
L 284.424793 122.161747 
L 287.499174 121.552643 
L 290.573554 121.183187 
L 293.647934 121.027459 
L 296.722314 121.058523 
L 299.796694 121.27448 
L 302.871074 121.661992 
L 305.945455 122.196216 
L 309.019835 122.877337 
L 312.094215 123.648121 
L 315.168595 124.410099 
L 318.242975 125.159654 
L 321.317355 125.904387 
L 324.391736 126.60349 
L 327.466116 127.272993 
L 330.540496 127.982164 
L 333.614876 128.860106 
L 336.689256 130.009653 
L 339.763636 131.581948 
L 342.838017 133.629298 
L 345.912397 136.174768 
L 348.986777 139.17931 
L 352.061157 142.680842 
L 355.135537 146.748681 
L 358.209917 151.498673 
L 361.284298 157.067227 
L 364.358678 163.73803 
L 367.433058 172.017475 
L 370.507438 181.983767 
L 373.581818 193.268675 
" style="fill:none;stroke:#ff7f0e;stroke-dasharray:6,2.25;stroke-dashoffset:0;stroke-width:1.5;"/>
   </g>
   <g id="line2d_14"/>
   <g id="line2d_15"/>
   <g id="line2d_16"/>
   <g id="patch_3">
    <path d="M 54 252 
L 54 34.56 
" style="fill:none;stroke:#000000;stroke-linecap:square;stroke-linejoin:miter;stroke-width:0.8;"/>
   </g>
   <g id="patch_4">
    <path d="M 388.8 252 
L 388.8 34.56 
" style="fill:none;stroke:#000000;stroke-linecap:square;stroke-linejoin:miter;stroke-width:0.8;"/>
   </g>
   <g id="patch_5">
    <path d="M 54 252 
L 388.8 252 
" style="fill:none;stroke:#000000;stroke-linecap:square;stroke-linejoin:miter;stroke-width:0.8;"/>
   </g>
   <g id="patch_6">
    <path d="M 54 34.56 
L 388.8 34.56 
" style="fill:none;stroke:#000000;stroke-linecap:square;stroke-linejoin:miter;stroke-width:0.8;"/>
   </g>
   <g id="legend_1">
    <g id="patch_7">
     <path d="M 287.957813 87.150625 
L 381.8 87.150625 
Q 383.8 87.150625 383.8 85.150625 
L 383.8 41.56 
Q 383.8 39.56 381.8 39.56 
L 287.957813 39.56 
Q 285.957813 39.56 285.957813 41.56 
L 285.957813 85.150625 
Q 285.957813 87.150625 287.957813 87.150625 
z
" style="fill:#ffffff;opacity:0.8;stroke:#cccccc;stroke-linejoin:miter;"/>
    </g>
    <g id="line2d_17">
     <path d="M 289.957813 47.658437 
L 309.957813 47.658437 
" style="fill:none;"/>
    </g>
    <g id="line2d_18"/>
    <g id="text_14">
     <!-- analysis -->
     <defs>
      <path d="M 9.421875 75.984375 
L 18.40625 75.984375 
L 18.40625 0 
L 9.421875 0 
z
" id="DejaVuSans-108"/>
      <path d="M 32.171875 -5.078125 
Q 28.375 -14.84375 24.75 -17.8125 
Q 21.140625 -20.796875 15.09375 -20.796875 
L 7.90625 -20.796875 
L 7.90625 -13.28125 
L 13.1875 -13.28125 
Q 16.890625 -13.28125 18.9375 -11.515625 
Q 21 -9.765625 23.484375 -3.21875 
L 25.09375 0.875 
L 2.984375 54.6875 
L 12.5 54.6875 
L 29.59375 11.921875 
L 46.6875 54.6875 
L 56.203125 54.6875 
z
" id="DejaVuSans-121"/>
      <path d="M 44.28125 53.078125 
L 44.28125 44.578125 
Q 40.484375 46.53125 36.375 47.5 
Q 32.28125 48.484375 27.875 48.484375 
Q 21.1875 48.484375 17.84375 46.4375 
Q 14.5 44.390625 14.5 40.28125 
Q 14.5 37.15625 16.890625 35.375 
Q 19.28125 33.59375 26.515625 31.984375 
L 29.59375 31.296875 
Q 39.15625 29.25 43.1875 25.515625 
Q 47.21875 21.78125 47.21875 15.09375 
Q 47.21875 7.46875 41.1875 3.015625 
Q 35.15625 -1.421875 24.609375 -1.421875 
Q 20.21875 -1.421875 15.453125 -0.5625 
Q 10.6875 0.296875 5.421875 2 
L 5.421875 11.28125 
Q 10.40625 8.6875 15.234375 7.390625 
Q 20.0625 6.109375 24.8125 6.109375 
Q 31.15625 6.109375 34.5625 8.28125 
Q 37.984375 10.453125 37.984375 14.40625 
Q 37.984375 18.0625 35.515625 20.015625 
Q 33.0625 21.96875 24.703125 23.78125 
L 21.578125 24.515625 
Q 13.234375 26.265625 9.515625 29.90625 
Q 5.8125 33.546875 5.8125 39.890625 
Q 5.8125 47.609375 11.28125 51.796875 
Q 16.75 56 26.8125 56 
Q 31.78125 56 36.171875 55.265625 
Q 40.578125 54.546875 44.28125 53.078125 
z
" id="DejaVuSans-115"/>
     </defs>
     <g transform="translate(317.957813 51.158437)scale(0.1 -0.1)">
      <use xlink:href="#DejaVuSans-97"/>
      <use x="61.279297" xlink:href="#DejaVuSans-110"/>
      <use x="124.658203" xlink:href="#DejaVuSans-97"/>
      <use x="185.9375" xlink:href="#DejaVuSans-108"/>
      <use x="213.720703" xlink:href="#DejaVuSans-121"/>
      <use x="272.900391" xlink:href="#DejaVuSans-115"/>
      <use x="325" xlink:href="#DejaVuSans-105"/>
      <use x="352.783203" xlink:href="#DejaVuSans-115"/>
     </g>
    </g>
    <g id="line2d_19">
     <path d="M 289.957813 62.336562 
L 309.957813 62.336562 
" style="fill:none;stroke:#1f77b4;stroke-linecap:square;stroke-width:1.5;"/>
    </g>
    <g id="line2d_20"/>
    <g id="text_15">
     <!-- compute_01 -->
     <defs>
      <path d="M 48.78125 52.59375 
L 48.78125 44.1875 
Q 44.96875 46.296875 41.140625 47.34375 
Q 37.3125 48.390625 33.40625 48.390625 
Q 24.65625 48.390625 19.8125 42.84375 
Q 14.984375 37.3125 14.984375 27.296875 
Q 14.984375 17.28125 19.8125 11.734375 
Q 24.65625 6.203125 33.40625 6.203125 
Q 37.3125 6.203125 41.140625 7.25 
Q 44.96875 8.296875 48.78125 10.40625 
L 48.78125 2.09375 
Q 45.015625 0.34375 40.984375 -0.53125 
Q 36.96875 -1.421875 32.421875 -1.421875 
Q 20.0625 -1.421875 12.78125 6.34375 
Q 5.515625 14.109375 5.515625 27.296875 
Q 5.515625 40.671875 12.859375 48.328125 
Q 20.21875 56 33.015625 56 
Q 37.15625 56 41.109375 55.140625 
Q 45.0625 54.296875 48.78125 52.59375 
z
" id="DejaVuSans-99"/>
      <path d="M 30.609375 48.390625 
Q 23.390625 48.390625 19.1875 42.75 
Q 14.984375 37.109375 14.984375 27.296875 
Q 14.984375 17.484375 19.15625 11.84375 
Q 23.34375 6.203125 30.609375 6.203125 
Q 37.796875 6.203125 41.984375 11.859375 
Q 46.1875 17.53125 46.1875 27.296875 
Q 46.1875 37.015625 41.984375 42.703125 
Q 37.796875 48.390625 30.609375 48.390625 
z
M 30.609375 56 
Q 42.328125 56 49.015625 48.375 
Q 55.71875 40.765625 55.71875 27.296875 
Q 55.71875 13.875 49.015625 6.21875 
Q 42.328125 -1.421875 30.609375 -1.421875 
Q 18.84375 -1.421875 12.171875 6.21875 
Q 5.515625 13.875 5.515625 27.296875 
Q 5.515625 40.765625 12.171875 48.375 
Q 18.84375 56 30.609375 56 
z
" id="DejaVuSans-111"/>
      <path d="M 52 44.1875 
Q 55.375 50.25 60.0625 53.125 
Q 64.75 56 71.09375 56 
Q 79.640625 56 84.28125 50.015625 
Q 88.921875 44.046875 88.921875 33.015625 
L 88.921875 0 
L 79.890625 0 
L 79.890625 32.71875 
Q 79.890625 40.578125 77.09375 44.375 
Q 74.3125 48.1875 68.609375 48.1875 
Q 61.625 48.1875 57.5625 43.546875 
Q 53.515625 38.921875 53.515625 30.90625 
L 53.515625 0 
L 44.484375 0 
L 44.484375 32.71875 
Q 44.484375 40.625 41.703125 44.40625 
Q 38.921875 48.1875 33.109375 48.1875 
Q 26.21875 48.1875 22.15625 43.53125 
Q 18.109375 38.875 18.109375 30.90625 
L 18.109375 0 
L 9.078125 0 
L 9.078125 54.6875 
L 18.109375 54.6875 
L 18.109375 46.1875 
Q 21.1875 51.21875 25.484375 53.609375 
Q 29.78125 56 35.6875 56 
Q 41.65625 56 45.828125 52.96875 
Q 50 49.953125 52 44.1875 
z
" id="DejaVuSans-109"/>
      <path d="M 18.109375 8.203125 
L 18.109375 -20.796875 
L 9.078125 -20.796875 
L 9.078125 54.6875 
L 18.109375 54.6875 
L 18.109375 46.390625 
Q 20.953125 51.265625 25.265625 53.625 
Q 29.59375 56 35.59375 56 
Q 45.5625 56 51.78125 48.09375 
Q 58.015625 40.1875 58.015625 27.296875 
Q 58.015625 14.40625 51.78125 6.484375 
Q 45.5625 -1.421875 35.59375 -1.421875 
Q 29.59375 -1.421875 25.265625 0.953125 
Q 20.953125 3.328125 18.109375 8.203125 
z
M 48.6875 27.296875 
Q 48.6875 37.203125 44.609375 42.84375 
Q 40.53125 48.484375 33.40625 48.484375 
Q 26.265625 48.484375 22.1875 42.84375 
Q 18.109375 37.203125 18.109375 27.296875 
Q 18.109375 17.390625 22.1875 11.75 
Q 26.265625 6.109375 33.40625 6.109375 
Q 40.53125 6.109375 44.609375 11.75 
Q 48.6875 17.390625 48.6875 27.296875 
z
" id="DejaVuSans-112"/>
      <path d="M 8.5 21.578125 
L 8.5 54.6875 
L 17.484375 54.6875 
L 17.484375 21.921875 
Q 17.484375 14.15625 20.5 10.265625 
Q 23.53125 6.390625 29.59375 6.390625 
Q 36.859375 6.390625 41.078125 11.03125 
Q 45.3125 15.671875 45.3125 23.6875 
L 45.3125 54.6875 
L 54.296875 54.6875 
L 54.296875 0 
L 45.3125 0 
L 45.3125 8.40625 
Q 42.046875 3.421875 37.71875 1 
Q 33.40625 -1.421875 27.6875 -1.421875 
Q 18.265625 -1.421875 13.375 4.4375 
Q 8.5 10.296875 8.5 21.578125 
z
M 31.109375 56 
z
" id="DejaVuSans-117"/>
      <path d="M 18.3125 70.21875 
L 18.3125 54.6875 
L 36.8125 54.6875 
L 36.8125 47.703125 
L 18.3125 47.703125 
L 18.3125 18.015625 
Q 18.3125 11.328125 20.140625 9.421875 
Q 21.96875 7.515625 27.59375 7.515625 
L 36.8125 7.515625 
L 36.8125 0 
L 27.59375 0 
Q 17.1875 0 13.234375 3.875 
Q 9.28125 7.765625 9.28125 18.015625 
L 9.28125 47.703125 
L 2.6875 47.703125 
L 2.6875 54.6875 
L 9.28125 54.6875 
L 9.28125 70.21875 
z
" id="DejaVuSans-116"/>
      <path d="M 56.203125 29.59375 
L 56.203125 25.203125 
L 14.890625 25.203125 
Q 15.484375 15.921875 20.484375 11.0625 
Q 25.484375 6.203125 34.421875 6.203125 
Q 39.59375 6.203125 44.453125 7.46875 
Q 49.3125 8.734375 54.109375 11.28125 
L 54.109375 2.78125 
Q 49.265625 0.734375 44.1875 -0.34375 
Q 39.109375 -1.421875 33.890625 -1.421875 
Q 20.796875 -1.421875 13.15625 6.1875 
Q 5.515625 13.8125 5.515625 26.8125 
Q 5.515625 40.234375 12.765625 48.109375 
Q 20.015625 56 32.328125 56 
Q 43.359375 56 49.78125 48.890625 
Q 56.203125 41.796875 56.203125 29.59375 
z
M 47.21875 32.234375 
Q 47.125 39.59375 43.09375 43.984375 
Q 39.0625 48.390625 32.421875 48.390625 
Q 24.90625 48.390625 20.390625 44.140625 
Q 15.875 39.890625 15.1875 32.171875 
z
" id="DejaVuSans-101"/>
      <path d="M 50.984375 -16.609375 
L 50.984375 -23.578125 
L -0.984375 -23.578125 
L -0.984375 -16.609375 
z
" id="DejaVuSans-95"/>
     </defs>
     <g transform="translate(317.957813 65.836562)scale(0.1 -0.1)">
      <use xlink:href="#DejaVuSans-99"/>
      <use x="54.980469" xlink:href="#DejaVuSans-111"/>
      <use x="116.162109" xlink:href="#DejaVuSans-109"/>
      <use x="213.574219" xlink:href="#DejaVuSans-112"/>
      <use x="277.050781" xlink:href="#DejaVuSans-117"/>
      <use x="340.429688" xlink:href="#DejaVuSans-116"/>
      <use x="379.638672" xlink:href="#DejaVuSans-101"/>
      <use x="441.162109" xlink:href="#DejaVuSans-95"/>
      <use x="491.162109" xlink:href="#DejaVuSans-48"/>
      <use x="554.785156" xlink:href="#DejaVuSans-49"/>
     </g>
    </g>
    <g id="line2d_21">
     <path d="M 289.957813 77.292812 
L 309.957813 77.292812 
" style="fill:none;stroke:#ff7f0e;stroke-dasharray:6,2.25;stroke-dashoffset:0;stroke-width:1.5;"/>
    </g>
    <g id="line2d_22"/>
    <g id="text_16">
     <!-- compute_02 -->
     <g transform="translate(317.957813 80.792812)scale(0.1 -0.1)">
      <use xlink:href="#DejaVuSans-99"/>
      <use x="54.980469" xlink:href="#DejaVuSans-111"/>
      <use x="116.162109" xlink:href="#DejaVuSans-109"/>
      <use x="213.574219" xlink:href="#DejaVuSans-112"/>
      <use x="277.050781" xlink:href="#DejaVuSans-117"/>
      <use x="340.429688" xlink:href="#DejaVuSans-116"/>
      <use x="379.638672" xlink:href="#DejaVuSans-101"/>
      <use x="441.162109" xlink:href="#DejaVuSans-95"/>
      <use x="491.162109" xlink:href="#DejaVuSans-48"/>
      <use x="554.785156" xlink:href="#DejaVuSans-50"/>
     </g>
    </g>
   </g>
  </g>
 </g>
 <defs>
  <clipPath id="p48c1fde0a2">
   <rect height="217.44" width="334.8" x="54" y="34.56"/>
  </clipPath>
 </defs>
</svg>
