<?xml version="1.0" encoding="utf-8" standalone="no"?>
<!DOCTYPE svg PUBLIC "-//W3C//DTD SVG 1.1//EN"
  "http://www.w3.org/Graphics/SVG/1.1/DTD/svg11.dtd">
<!-- Created with matplotlib (https://matplotlib.org/) -->
<svg height="288pt" version="1.1" viewBox="0 0 432 288" width="432pt" xmlns="http://www.w3.org/2000/svg" xmlns:xlink="http://www.w3.org/1999/xlink">
 <defs>
  <style type="text/css">
*{stroke-linecap:butt;stroke-linejoin:round;}
  </style>
 </defs>
 <g id="figure_1">
  <g id="patch_1">
   <path d="M 0 288 
L 432 288 
L 432 0 
L 0 0 
z
" style="fill:#ffffff;"/>
  </g>
  <g id="axes_1">
   <g id="patch_2">
    <path d="M 112.68 252 
L 330.12 252 
L 330.12 34.56 
L 112.68 34.56 
z
" style="fill:#ffffff;"/>
   </g>
   <g id="PathCollection_1">
    <defs>
     <path d="M 0 3 
C 0.795609 3 1.55874 2.683901 2.12132 2.12132 
C 2.683901 1.55874 3 0.795609 3 0 
C 3 -0.795609 2.683901 -1.55874 2.12132 -2.12132 
C 1.55874 -2.683901 0.795609 -3 0 -3 
C -0.795609 -3 -1.55874 -2.683901 -2.12132 -2.12132 
C -2.683901 -1.55874 -3 -0.795609 -3 0 
C -3 0.795609 -2.683901 1.55874 -2.12132 2.12132 
C -1.55874 2.683901 -0.795609 3 0 3 
z
" id="ma25432ed93" style="stroke:#1f77b4;stroke-opacity:0.8;"/>
    </defs>
    <g clip-path="url(#pe267b7b522)">
     <use style="fill:#1f77b4;fill-opacity:0.8;stroke:#1f77b4;stroke-opacity:0.8;" x="284.105729" xlink:href="#ma25432ed93" y="80.574271"/>
     <use style="fill:#1f77b4;fill-opacity:0.8;stroke:#1f77b4;stroke-opacity:0.8;" x="232.411601" xlink:href="#ma25432ed93" y="132.268399"/>
     <use style="fill:#1f77b4;fill-opacity:0.8;stroke:#1f77b4;stroke-opacity:0.8;" x="226.943799" xlink:href="#ma25432ed93" y="137.736201"/>
     <use style="fill:#1f77b4;fill-opacity:0.8;stroke:#1f77b4;stroke-opacity:0.8;" x="186.094705" xlink:href="#ma25432ed93" y="178.585295"/>
     <use style="fill:#1f77b4;fill-opacity:0.8;stroke:#1f77b4;stroke-opacity:0.8;" x="239.218279" xlink:href="#ma25432ed93" y="125.461721"/>
     <use style="fill:#1f77b4;fill-opacity:0.8;stroke:#1f77b4;stroke-opacity:0.8;" x="274.093987" xlink:href="#ma25432ed93" y="90.586013"/>
     <use style="fill:#1f77b4;fill-opacity:0.8;stroke:#1f77b4;stroke-opacity:0.8;" x="215.71624" xlink:href="#ma25432ed93" y="148.96376"/>
     <use style="fill:#1f77b4;fill-opacity:0.8;stroke:#1f77b4;stroke-opacity:0.8;" x="210.764032" xlink:href="#ma25432ed93" y="153.915968"/>
     <use style="fill:#1f77b4;fill-opacity:0.8;stroke:#1f77b4;stroke-opacity:0.8;" x="219.195739" xlink:href="#ma25432ed93" y="145.484261"/>
     <use style="fill:#1f77b4;fill-opacity:0.8;stroke:#1f77b4;stroke-opacity:0.8;" x="301.932682" xlink:href="#ma25432ed93" y="62.747318"/>
     <use style="fill:#1f77b4;fill-opacity:0.8;stroke:#1f77b4;stroke-opacity:0.8;" x="322.621744" xlink:href="#ma25432ed93" y="42.058256"/>
     <use style="fill:#1f77b4;fill-opacity:0.8;stroke:#1f77b4;stroke-opacity:0.8;" x="225.62959" xlink:href="#ma25432ed93" y="139.05041"/>
     <use style="fill:#1f77b4;fill-opacity:0.8;stroke:#1f77b4;stroke-opacity:0.8;" x="288.916815" xlink:href="#ma25432ed93" y="75.763185"/>
     <use style="fill:#1f77b4;fill-opacity:0.8;stroke:#1f77b4;stroke-opacity:0.8;" x="230.082451" xlink:href="#ma25432ed93" y="134.597549"/>
     <use style="fill:#1f77b4;fill-opacity:0.8;stroke:#1f77b4;stroke-opacity:0.8;" x="212.01701" xlink:href="#ma25432ed93" y="152.66299"/>
     <use style="fill:#1f77b4;fill-opacity:0.8;stroke:#1f77b4;stroke-opacity:0.8;" x="242.241091" xlink:href="#ma25432ed93" y="122.438909"/>
     <use style="fill:#1f77b4;fill-opacity:0.8;stroke:#1f77b4;stroke-opacity:0.8;" x="149.168021" xlink:href="#ma25432ed93" y="215.511979"/>
     <use style="fill:#1f77b4;fill-opacity:0.8;stroke:#1f77b4;stroke-opacity:0.8;" x="153.941762" xlink:href="#ma25432ed93" y="210.738238"/>
     <use style="fill:#1f77b4;fill-opacity:0.8;stroke:#1f77b4;stroke-opacity:0.8;" x="250.693187" xlink:href="#ma25432ed93" y="113.986813"/>
     <use style="fill:#1f77b4;fill-opacity:0.8;stroke:#1f77b4;stroke-opacity:0.8;" x="259.587747" xlink:href="#ma25432ed93" y="105.092253"/>
     <use style="fill:#1f77b4;fill-opacity:0.8;stroke:#1f77b4;stroke-opacity:0.8;" x="247.712875" xlink:href="#ma25432ed93" y="116.967125"/>
     <use style="fill:#1f77b4;fill-opacity:0.8;stroke:#1f77b4;stroke-opacity:0.8;" x="223.738887" xlink:href="#ma25432ed93" y="140.941113"/>
     <use style="fill:#1f77b4;fill-opacity:0.8;stroke:#1f77b4;stroke-opacity:0.8;" x="253.850027" xlink:href="#ma25432ed93" y="110.829973"/>
     <use style="fill:#1f77b4;fill-opacity:0.8;stroke:#1f77b4;stroke-opacity:0.8;" x="297.917402" xlink:href="#ma25432ed93" y="66.762598"/>
     <use style="fill:#1f77b4;fill-opacity:0.8;stroke:#1f77b4;stroke-opacity:0.8;" x="203.577898" xlink:href="#ma25432ed93" y="161.102102"/>
     <use style="fill:#1f77b4;fill-opacity:0.8;stroke:#1f77b4;stroke-opacity:0.8;" x="247.373363" xlink:href="#ma25432ed93" y="117.306637"/>
     <use style="fill:#1f77b4;fill-opacity:0.8;stroke:#1f77b4;stroke-opacity:0.8;" x="183.091121" xlink:href="#ma25432ed93" y="181.588879"/>
     <use style="fill:#1f77b4;fill-opacity:0.8;stroke:#1f77b4;stroke-opacity:0.8;" x="211.34146" xlink:href="#ma25432ed93" y="153.33854"/>
     <use style="fill:#1f77b4;fill-opacity:0.8;stroke:#1f77b4;stroke-opacity:0.8;" x="186.596482" xlink:href="#ma25432ed93" y="178.083518"/>
     <use style="fill:#1f77b4;fill-opacity:0.8;stroke:#1f77b4;stroke-opacity:0.8;" x="227.404239" xlink:href="#ma25432ed93" y="137.275761"/>
     <use style="fill:#1f77b4;fill-opacity:0.8;stroke:#1f77b4;stroke-opacity:0.8;" x="211.118402" xlink:href="#ma25432ed93" y="153.561598"/>
     <use style="fill:#1f77b4;fill-opacity:0.8;stroke:#1f77b4;stroke-opacity:0.8;" x="249.844333" xlink:href="#ma25432ed93" y="114.835667"/>
     <use style="fill:#1f77b4;fill-opacity:0.8;stroke:#1f77b4;stroke-opacity:0.8;" x="200.269196" xlink:href="#ma25432ed93" y="164.410804"/>
     <use style="fill:#1f77b4;fill-opacity:0.8;stroke:#1f77b4;stroke-opacity:0.8;" x="234.199907" xlink:href="#ma25432ed93" y="130.480093"/>
     <use style="fill:#1f77b4;fill-opacity:0.8;stroke:#1f77b4;stroke-opacity:0.8;" x="201.31179" xlink:href="#ma25432ed93" y="163.36821"/>
     <use style="fill:#1f77b4;fill-opacity:0.8;stroke:#1f77b4;stroke-opacity:0.8;" x="224.711966" xlink:href="#ma25432ed93" y="139.968034"/>
     <use style="fill:#1f77b4;fill-opacity:0.8;stroke:#1f77b4;stroke-opacity:0.8;" x="202.169692" xlink:href="#ma25432ed93" y="162.510308"/>
     <use style="fill:#1f77b4;fill-opacity:0.8;stroke:#1f77b4;stroke-opacity:0.8;" x="214.74608" xlink:href="#ma25432ed93" y="149.93392"/>
     <use style="fill:#1f77b4;fill-opacity:0.8;stroke:#1f77b4;stroke-opacity:0.8;" x="258.347827" xlink:href="#ma25432ed93" y="106.332173"/>
     <use style="fill:#1f77b4;fill-opacity:0.8;stroke:#1f77b4;stroke-opacity:0.8;" x="202.282348" xlink:href="#ma25432ed93" y="162.397652"/>
     <use style="fill:#1f77b4;fill-opacity:0.8;stroke:#1f77b4;stroke-opacity:0.8;" x="263.471681" xlink:href="#ma25432ed93" y="101.208319"/>
     <use style="fill:#1f77b4;fill-opacity:0.8;stroke:#1f77b4;stroke-opacity:0.8;" x="221.469072" xlink:href="#ma25432ed93" y="143.210928"/>
     <use style="fill:#1f77b4;fill-opacity:0.8;stroke:#1f77b4;stroke-opacity:0.8;" x="276.98733" xlink:href="#ma25432ed93" y="87.69267"/>
     <use style="fill:#1f77b4;fill-opacity:0.8;stroke:#1f77b4;stroke-opacity:0.8;" x="307.375771" xlink:href="#ma25432ed93" y="57.304229"/>
     <use style="fill:#1f77b4;fill-opacity:0.8;stroke:#1f77b4;stroke-opacity:0.8;" x="277.797437" xlink:href="#ma25432ed93" y="86.882563"/>
     <use style="fill:#1f77b4;fill-opacity:0.8;stroke:#1f77b4;stroke-opacity:0.8;" x="254.45882" xlink:href="#ma25432ed93" y="110.22118"/>
     <use style="fill:#1f77b4;fill-opacity:0.8;stroke:#1f77b4;stroke-opacity:0.8;" x="172.469995" xlink:href="#ma25432ed93" y="192.210005"/>
     <use style="fill:#1f77b4;fill-opacity:0.8;stroke:#1f77b4;stroke-opacity:0.8;" x="217.067664" xlink:href="#ma25432ed93" y="147.612336"/>
     <use style="fill:#1f77b4;fill-opacity:0.8;stroke:#1f77b4;stroke-opacity:0.8;" x="219.412472" xlink:href="#ma25432ed93" y="145.267528"/>
     <use style="fill:#1f77b4;fill-opacity:0.8;stroke:#1f77b4;stroke-opacity:0.8;" x="287.328369" xlink:href="#ma25432ed93" y="77.351631"/>
     <use style="fill:#1f77b4;fill-opacity:0.8;stroke:#1f77b4;stroke-opacity:0.8;" x="254.961064" xlink:href="#ma25432ed93" y="109.718936"/>
     <use style="fill:#1f77b4;fill-opacity:0.8;stroke:#1f77b4;stroke-opacity:0.8;" x="206.025733" xlink:href="#ma25432ed93" y="158.654267"/>
     <use style="fill:#1f77b4;fill-opacity:0.8;stroke:#1f77b4;stroke-opacity:0.8;" x="207.199168" xlink:href="#ma25432ed93" y="157.480832"/>
     <use style="fill:#1f77b4;fill-opacity:0.8;stroke:#1f77b4;stroke-opacity:0.8;" x="270.460006" xlink:href="#ma25432ed93" y="94.219994"/>
     <use style="fill:#1f77b4;fill-opacity:0.8;stroke:#1f77b4;stroke-opacity:0.8;" x="264.61015" xlink:href="#ma25432ed93" y="100.06985"/>
     <use style="fill:#1f77b4;fill-opacity:0.8;stroke:#1f77b4;stroke-opacity:0.8;" x="211.53583" xlink:href="#ma25432ed93" y="153.14417"/>
     <use style="fill:#1f77b4;fill-opacity:0.8;stroke:#1f77b4;stroke-opacity:0.8;" x="188.254332" xlink:href="#ma25432ed93" y="176.425668"/>
     <use style="fill:#1f77b4;fill-opacity:0.8;stroke:#1f77b4;stroke-opacity:0.8;" x="283.917548" xlink:href="#ma25432ed93" y="80.762452"/>
     <use style="fill:#1f77b4;fill-opacity:0.8;stroke:#1f77b4;stroke-opacity:0.8;" x="290.233736" xlink:href="#ma25432ed93" y="74.446264"/>
     <use style="fill:#1f77b4;fill-opacity:0.8;stroke:#1f77b4;stroke-opacity:0.8;" x="191.889112" xlink:href="#ma25432ed93" y="172.790888"/>
     <use style="fill:#1f77b4;fill-opacity:0.8;stroke:#1f77b4;stroke-opacity:0.8;" x="230.386499" xlink:href="#ma25432ed93" y="134.293501"/>
     <use style="fill:#1f77b4;fill-opacity:0.8;stroke:#1f77b4;stroke-opacity:0.8;" x="278.338159" xlink:href="#ma25432ed93" y="86.341841"/>
     <use style="fill:#1f77b4;fill-opacity:0.8;stroke:#1f77b4;stroke-opacity:0.8;" x="201.126523" xlink:href="#ma25432ed93" y="163.553477"/>
     <use style="fill:#1f77b4;fill-opacity:0.8;stroke:#1f77b4;stroke-opacity:0.8;" x="245.253605" xlink:href="#ma25432ed93" y="119.426395"/>
     <use style="fill:#1f77b4;fill-opacity:0.8;stroke:#1f77b4;stroke-opacity:0.8;" x="283.015803" xlink:href="#ma25432ed93" y="81.664197"/>
     <use style="fill:#1f77b4;fill-opacity:0.8;stroke:#1f77b4;stroke-opacity:0.8;" x="284.653528" xlink:href="#ma25432ed93" y="80.026472"/>
     <use style="fill:#1f77b4;fill-opacity:0.8;stroke:#1f77b4;stroke-opacity:0.8;" x="234.153124" xlink:href="#ma25432ed93" y="130.526876"/>
     <use style="fill:#1f77b4;fill-opacity:0.8;stroke:#1f77b4;stroke-opacity:0.8;" x="210.972252" xlink:href="#ma25432ed93" y="153.707748"/>
     <use style="fill:#1f77b4;fill-opacity:0.8;stroke:#1f77b4;stroke-opacity:0.8;" x="283.270187" xlink:href="#ma25432ed93" y="81.409813"/>
     <use style="fill:#1f77b4;fill-opacity:0.8;stroke:#1f77b4;stroke-opacity:0.8;" x="198.54103" xlink:href="#ma25432ed93" y="166.13897"/>
     <use style="fill:#1f77b4;fill-opacity:0.8;stroke:#1f77b4;stroke-opacity:0.8;" x="173.637674" xlink:href="#ma25432ed93" y="191.042326"/>
     <use style="fill:#1f77b4;fill-opacity:0.8;stroke:#1f77b4;stroke-opacity:0.8;" x="245.851401" xlink:href="#ma25432ed93" y="118.828599"/>
     <use style="fill:#1f77b4;fill-opacity:0.8;stroke:#1f77b4;stroke-opacity:0.8;" x="269.063131" xlink:href="#ma25432ed93" y="95.616869"/>
     <use style="fill:#1f77b4;fill-opacity:0.8;stroke:#1f77b4;stroke-opacity:0.8;" x="195.962292" xlink:href="#ma25432ed93" y="168.717708"/>
     <use style="fill:#1f77b4;fill-opacity:0.8;stroke:#1f77b4;stroke-opacity:0.8;" x="184.582199" xlink:href="#ma25432ed93" y="180.097801"/>
     <use style="fill:#1f77b4;fill-opacity:0.8;stroke:#1f77b4;stroke-opacity:0.8;" x="257.100883" xlink:href="#ma25432ed93" y="107.579117"/>
     <use style="fill:#1f77b4;fill-opacity:0.8;stroke:#1f77b4;stroke-opacity:0.8;" x="265.24079" xlink:href="#ma25432ed93" y="99.43921"/>
     <use style="fill:#1f77b4;fill-opacity:0.8;stroke:#1f77b4;stroke-opacity:0.8;" x="205.906394" xlink:href="#ma25432ed93" y="158.773606"/>
     <use style="fill:#1f77b4;fill-opacity:0.8;stroke:#1f77b4;stroke-opacity:0.8;" x="120.761781" xlink:href="#ma25432ed93" y="243.918219"/>
     <use style="fill:#1f77b4;fill-opacity:0.8;stroke:#1f77b4;stroke-opacity:0.8;" x="238.350066" xlink:href="#ma25432ed93" y="126.329934"/>
     <use style="fill:#1f77b4;fill-opacity:0.8;stroke:#1f77b4;stroke-opacity:0.8;" x="218.895646" xlink:href="#ma25432ed93" y="145.784354"/>
     <use style="fill:#1f77b4;fill-opacity:0.8;stroke:#1f77b4;stroke-opacity:0.8;" x="218.934906" xlink:href="#ma25432ed93" y="145.745094"/>
     <use style="fill:#1f77b4;fill-opacity:0.8;stroke:#1f77b4;stroke-opacity:0.8;" x="241.803265" xlink:href="#ma25432ed93" y="122.876735"/>
     <use style="fill:#1f77b4;fill-opacity:0.8;stroke:#1f77b4;stroke-opacity:0.8;" x="174.068131" xlink:href="#ma25432ed93" y="190.611869"/>
     <use style="fill:#1f77b4;fill-opacity:0.8;stroke:#1f77b4;stroke-opacity:0.8;" x="208.601733" xlink:href="#ma25432ed93" y="156.078267"/>
     <use style="fill:#1f77b4;fill-opacity:0.8;stroke:#1f77b4;stroke-opacity:0.8;" x="218.737195" xlink:href="#ma25432ed93" y="145.942805"/>
     <use style="fill:#1f77b4;fill-opacity:0.8;stroke:#1f77b4;stroke-opacity:0.8;" x="175.97142" xlink:href="#ma25432ed93" y="188.70858"/>
     <use style="fill:#1f77b4;fill-opacity:0.8;stroke:#1f77b4;stroke-opacity:0.8;" x="233.621322" xlink:href="#ma25432ed93" y="131.058678"/>
     <use style="fill:#1f77b4;fill-opacity:0.8;stroke:#1f77b4;stroke-opacity:0.8;" x="260.443927" xlink:href="#ma25432ed93" y="104.236073"/>
     <use style="fill:#1f77b4;fill-opacity:0.8;stroke:#1f77b4;stroke-opacity:0.8;" x="288.154356" xlink:href="#ma25432ed93" y="76.525644"/>
     <use style="fill:#1f77b4;fill-opacity:0.8;stroke:#1f77b4;stroke-opacity:0.8;" x="229.434154" xlink:href="#ma25432ed93" y="135.245846"/>
     <use style="fill:#1f77b4;fill-opacity:0.8;stroke:#1f77b4;stroke-opacity:0.8;" x="216.301364" xlink:href="#ma25432ed93" y="148.378636"/>
     <use style="fill:#1f77b4;fill-opacity:0.8;stroke:#1f77b4;stroke-opacity:0.8;" x="176.578651" xlink:href="#ma25432ed93" y="188.101349"/>
     <use style="fill:#1f77b4;fill-opacity:0.8;stroke:#1f77b4;stroke-opacity:0.8;" x="276.793873" xlink:href="#ma25432ed93" y="87.886127"/>
     <use style="fill:#1f77b4;fill-opacity:0.8;stroke:#1f77b4;stroke-opacity:0.8;" x="265.212156" xlink:href="#ma25432ed93" y="99.467844"/>
     <use style="fill:#1f77b4;fill-opacity:0.8;stroke:#1f77b4;stroke-opacity:0.8;" x="271.660255" xlink:href="#ma25432ed93" y="93.019745"/>
     <use style="fill:#1f77b4;fill-opacity:0.8;stroke:#1f77b4;stroke-opacity:0.8;" x="211.481582" xlink:href="#ma25432ed93" y="153.198418"/>
     <use style="fill:#1f77b4;fill-opacity:0.8;stroke:#1f77b4;stroke-opacity:0.8;" x="317.046804" xlink:href="#ma25432ed93" y="47.633196"/>
     <use style="fill:#1f77b4;fill-opacity:0.8;stroke:#1f77b4;stroke-opacity:0.8;" x="242.28557" xlink:href="#ma25432ed93" y="122.39443"/>
     <use style="fill:#1f77b4;fill-opacity:0.8;stroke:#1f77b4;stroke-opacity:0.8;" x="205.796943" xlink:href="#ma25432ed93" y="158.883057"/>
     <use style="fill:#1f77b4;fill-opacity:0.8;stroke:#1f77b4;stroke-opacity:0.8;" x="244.870766" xlink:href="#ma25432ed93" y="119.809234"/>
     <use style="fill:#1f77b4;fill-opacity:0.8;stroke:#1f77b4;stroke-opacity:0.8;" x="259.875561" xlink:href="#ma25432ed93" y="104.804439"/>
     <use style="fill:#1f77b4;fill-opacity:0.8;stroke:#1f77b4;stroke-opacity:0.8;" x="244.35062" xlink:href="#ma25432ed93" y="120.32938"/>
     <use style="fill:#1f77b4;fill-opacity:0.8;stroke:#1f77b4;stroke-opacity:0.8;" x="204.815901" xlink:href="#ma25432ed93" y="159.864099"/>
     <use style="fill:#1f77b4;fill-opacity:0.8;stroke:#1f77b4;stroke-opacity:0.8;" x="222.02579" xlink:href="#ma25432ed93" y="142.65421"/>
     <use style="fill:#1f77b4;fill-opacity:0.8;stroke:#1f77b4;stroke-opacity:0.8;" x="237.697023" xlink:href="#ma25432ed93" y="126.982977"/>
     <use style="fill:#1f77b4;fill-opacity:0.8;stroke:#1f77b4;stroke-opacity:0.8;" x="156.005364" xlink:href="#ma25432ed93" y="208.674636"/>
     <use style="fill:#1f77b4;fill-opacity:0.8;stroke:#1f77b4;stroke-opacity:0.8;" x="295.72011" xlink:href="#ma25432ed93" y="68.95989"/>
     <use style="fill:#1f77b4;fill-opacity:0.8;stroke:#1f77b4;stroke-opacity:0.8;" x="230.164465" xlink:href="#ma25432ed93" y="134.515535"/>
     <use style="fill:#1f77b4;fill-opacity:0.8;stroke:#1f77b4;stroke-opacity:0.8;" x="229.984387" xlink:href="#ma25432ed93" y="134.695613"/>
     <use style="fill:#1f77b4;fill-opacity:0.8;stroke:#1f77b4;stroke-opacity:0.8;" x="257.515487" xlink:href="#ma25432ed93" y="107.164513"/>
     <use style="fill:#1f77b4;fill-opacity:0.8;stroke:#1f77b4;stroke-opacity:0.8;" x="191.704865" xlink:href="#ma25432ed93" y="172.975135"/>
     <use style="fill:#1f77b4;fill-opacity:0.8;stroke:#1f77b4;stroke-opacity:0.8;" x="186.896281" xlink:href="#ma25432ed93" y="177.783719"/>
    </g>
   </g>
   <g id="PolyCollection_1">
    <path clip-path="url(#pe267b7b522)" d="M 110.668783 254.011217 
L 110.668783 254.011217 
L 112.911671 251.768329 
L 115.15456 249.52544 
L 117.397448 247.282552 
L 119.640337 245.039663 
L 121.883225 242.796775 
L 124.126114 240.553886 
L 126.369002 238.310998 
L 128.611891 236.068109 
L 130.854779 233.825221 
L 133.097668 231.582332 
L 135.340556 229.339444 
L 137.583445 227.096555 
L 139.826333 224.853667 
L 142.069222 222.610778 
L 144.31211 220.36789 
L 146.554998 218.125002 
L 148.797887 215.882113 
L 151.040775 213.639225 
L 153.283664 211.396336 
L 155.526552 209.153448 
L 157.769441 206.910559 
L 160.012329 204.667671 
L 162.255218 202.424782 
L 164.498106 200.181894 
L 166.740995 197.939005 
L 168.983883 195.696117 
L 171.226772 193.453228 
L 173.46966 191.21034 
L 175.712549 188.967451 
L 177.955437 186.724563 
L 180.198326 184.481674 
L 182.441214 182.238786 
L 184.684103 179.995897 
L 186.926991 177.753009 
L 189.16988 175.51012 
L 191.412768 173.267232 
L 193.655657 171.024343 
L 195.898545 168.781455 
L 198.141434 166.538566 
L 200.384322 164.295678 
L 202.627211 162.052789 
L 204.870099 159.809901 
L 207.112987 157.567013 
L 209.355876 155.324124 
L 211.598764 153.081236 
L 213.841653 150.838347 
L 216.084541 148.595459 
L 218.32743 146.35257 
L 220.570318 144.109682 
L 222.813207 141.866793 
L 225.056095 139.623905 
L 227.298984 137.381016 
L 229.541872 135.138128 
L 231.784761 132.895239 
L 234.027649 130.652351 
L 236.270538 128.409462 
L 238.513426 126.166574 
L 240.756315 123.923685 
L 242.999203 121.680797 
L 245.242092 119.437908 
L 247.48498 117.19502 
L 249.727869 114.952131 
L 251.970757 112.709243 
L 254.213646 110.466354 
L 256.456534 108.223466 
L 258.699423 105.980577 
L 260.942311 103.737689 
L 263.1852 101.4948 
L 265.428088 99.251912 
L 267.670976 97.009024 
L 269.913865 94.766135 
L 272.156753 92.523247 
L 274.399642 90.280358 
L 276.64253 88.03747 
L 278.885419 85.794581 
L 281.128307 83.551693 
L 283.371196 81.308804 
L 285.614084 79.065916 
L 287.856973 76.823027 
L 290.099861 74.580139 
L 292.34275 72.33725 
L 294.585638 70.094362 
L 296.828527 67.851473 
L 299.071415 65.608585 
L 301.314304 63.365696 
L 303.557192 61.122808 
L 305.800081 58.879919 
L 308.042969 56.637031 
L 310.285858 54.394142 
L 312.528746 52.151254 
L 314.771635 49.908365 
L 317.014523 47.665477 
L 319.257412 45.422588 
L 321.5003 43.1797 
L 323.743189 40.936811 
L 325.986077 38.693923 
L 328.228965 36.451035 
L 330.471854 34.208146 
L 332.714742 31.965258 
L 332.714742 31.965258 
L 332.714742 31.965258 
L 330.471854 34.208146 
L 328.228965 36.451035 
L 325.986077 38.693923 
L 323.743189 40.936811 
L 321.5003 43.1797 
L 319.257412 45.422588 
L 317.014523 47.665477 
L 314.771635 49.908365 
L 312.528746 52.151254 
L 310.285858 54.394142 
L 308.042969 56.637031 
L 305.800081 58.879919 
L 303.557192 61.122808 
L 301.314304 63.365696 
L 299.071415 65.608585 
L 296.828527 67.851473 
L 294.585638 70.094362 
L 292.34275 72.33725 
L 290.099861 74.580139 
L 287.856973 76.823027 
L 285.614084 79.065916 
L 283.371196 81.308804 
L 281.128307 83.551693 
L 278.885419 85.794581 
L 276.64253 88.03747 
L 274.399642 90.280358 
L 272.156753 92.523247 
L 269.913865 94.766135 
L 267.670976 97.009024 
L 265.428088 99.251912 
L 263.1852 101.4948 
L 260.942311 103.737689 
L 258.699423 105.980577 
L 256.456534 108.223466 
L 254.213646 110.466354 
L 251.970757 112.709243 
L 249.727869 114.952131 
L 247.48498 117.19502 
L 245.242092 119.437908 
L 242.999203 121.680797 
L 240.756315 123.923685 
L 238.513426 126.166574 
L 236.270538 128.409462 
L 234.027649 130.652351 
L 231.784761 132.895239 
L 229.541872 135.138128 
L 227.298984 137.381016 
L 225.056095 139.623905 
L 222.813207 141.866793 
L 220.570318 144.109682 
L 218.32743 146.35257 
L 216.084541 148.595459 
L 213.841653 150.838347 
L 211.598764 153.081236 
L 209.355876 155.324124 
L 207.112987 157.567013 
L 204.870099 159.809901 
L 202.627211 162.052789 
L 200.384322 164.295678 
L 198.141434 166.538566 
L 195.898545 168.781455 
L 193.655657 171.024343 
L 191.412768 173.267232 
L 189.16988 175.51012 
L 186.926991 177.753009 
L 184.684103 179.995897 
L 182.441214 182.238786 
L 180.198326 184.481674 
L 177.955437 186.724563 
L 175.712549 188.967451 
L 173.46966 191.21034 
L 171.226772 193.453228 
L 168.983883 195.696117 
L 166.740995 197.939005 
L 164.498106 200.181894 
L 162.255218 202.424782 
L 160.012329 204.667671 
L 157.769441 206.910559 
L 155.526552 209.153448 
L 153.283664 211.396336 
L 151.040775 213.639225 
L 148.797887 215.882113 
L 146.554998 218.125002 
L 144.31211 220.36789 
L 142.069222 222.610778 
L 139.826333 224.853667 
L 137.583445 227.096555 
L 135.340556 229.339444 
L 133.097668 231.582332 
L 130.854779 233.825221 
L 128.611891 236.068109 
L 126.369002 238.310998 
L 124.126114 240.553886 
L 121.883225 242.796775 
L 119.640337 245.039663 
L 117.397448 247.282552 
L 115.15456 249.52544 
L 112.911671 251.768329 
L 110.668783 254.011217 
z
" style="fill:#1f77b4;fill-opacity:0.15;"/>
   </g>
   <g id="matplotlib.axis_1">
    <g id="xtick_1">
     <g id="line2d_1">
      <defs>
       <path d="M 0 0 
L 0 3.5 
" id="mf7ece61ae7" style="stroke:#000000;stroke-width:0.8;"/>
      </defs>
      <g>
       <use style="stroke:#000000;stroke-width:0.8;" x="112.68" xlink:href="#mf7ece61ae7" y="252"/>
      </g>
     </g>
     <g id="text_1">
      <!-- 0.40 -->
      <defs>
       <path d="M 31.78125 66.40625 
Q 24.171875 66.40625 20.328125 58.90625 
Q 16.5 51.421875 16.5 36.375 
Q 16.5 21.390625 20.328125 13.890625 
Q 24.171875 6.390625 31.78125 6.390625 
Q 39.453125 6.390625 43.28125 13.890625 
Q 47.125 21.390625 47.125 36.375 
Q 47.125 51.421875 43.28125 58.90625 
Q 39.453125 66.40625 31.78125 66.40625 
z
M 31.78125 74.21875 
Q 44.046875 74.21875 50.515625 64.515625 
Q 56.984375 54.828125 56.984375 36.375 
Q 56.984375 17.96875 50.515625 8.265625 
Q 44.046875 -1.421875 31.78125 -1.421875 
Q 19.53125 -1.421875 13.0625 8.265625 
Q 6.59375 17.96875 6.59375 36.375 
Q 6.59375 54.828125 13.0625 64.515625 
Q 19.53125 74.21875 31.78125 74.21875 
z
" id="DejaVuSans-48"/>
       <path d="M 10.6875 12.40625 
L 21 12.40625 
L 21 0 
L 10.6875 0 
z
" id="DejaVuSans-46"/>
       <path d="M 37.796875 64.3125 
L 12.890625 25.390625 
L 37.796875 25.390625 
z
M 35.203125 72.90625 
L 47.609375 72.90625 
L 47.609375 25.390625 
L 58.015625 25.390625 
L 58.015625 17.1875 
L 47.609375 17.1875 
L 47.609375 0 
L 37.796875 0 
L 37.796875 17.1875 
L 4.890625 17.1875 
L 4.890625 26.703125 
z
" id="DejaVuSans-52"/>
      </defs>
      <g transform="translate(101.547188 266.598437)scale(0.1 -0.1)">
       <use xlink:href="#DejaVuSans-48"/>
       <use x="63.623047" xlink:href="#DejaVuSans-46"/>
       <use x="95.410156" xlink:href="#DejaVuSans-52"/>
       <use x="159.033203" xlink:href="#DejaVuSans-48"/>
      </g>
     </g>
    </g>
    <g id="xtick_2">
     <g id="line2d_2">
      <g>
       <use style="stroke:#000000;stroke-width:0.8;" x="146.132308" xlink:href="#mf7ece61ae7" y="252"/>
      </g>
     </g>
     <g id="text_2">
      <!-- 0.42 -->
      <defs>
       <path d="M 19.1875 8.296875 
L 53.609375 8.296875 
L 53.609375 0 
L 7.328125 0 
L 7.328125 8.296875 
Q 12.9375 14.109375 22.625 23.890625 
Q 32.328125 33.6875 34.8125 36.53125 
Q 39.546875 41.84375 41.421875 45.53125 
Q 43.3125 49.21875 43.3125 52.78125 
Q 43.3125 58.59375 39.234375 62.25 
Q 35.15625 65.921875 28.609375 65.921875 
Q 23.96875 65.921875 18.8125 64.3125 
Q 13.671875 62.703125 7.8125 59.421875 
L 7.8125 69.390625 
Q 13.765625 71.78125 18.9375 73 
Q 24.125 74.21875 28.421875 74.21875 
Q 39.75 74.21875 46.484375 68.546875 
Q 53.21875 62.890625 53.21875 53.421875 
Q 53.21875 48.921875 51.53125 44.890625 
Q 49.859375 40.875 45.40625 35.40625 
Q 44.1875 33.984375 37.640625 27.21875 
Q 31.109375 20.453125 19.1875 8.296875 
z
" id="DejaVuSans-50"/>
      </defs>
      <g transform="translate(134.999495 266.598437)scale(0.1 -0.1)">
       <use xlink:href="#DejaVuSans-48"/>
       <use x="63.623047" xlink:href="#DejaVuSans-46"/>
       <use x="95.410156" xlink:href="#DejaVuSans-52"/>
       <use x="159.033203" xlink:href="#DejaVuSans-50"/>
      </g>
     </g>
    </g>
    <g id="xtick_3">
     <g id="line2d_3">
      <g>
       <use style="stroke:#000000;stroke-width:0.8;" x="179.584615" xlink:href="#mf7ece61ae7" y="252"/>
      </g>
     </g>
     <g id="text_3">
      <!-- 0.44 -->
      <g transform="translate(168.451803 266.598437)scale(0.1 -0.1)">
       <use xlink:href="#DejaVuSans-48"/>
       <use x="63.623047" xlink:href="#DejaVuSans-46"/>
       <use x="95.410156" xlink:href="#DejaVuSans-52"/>
       <use x="159.033203" xlink:href="#DejaVuSans-52"/>
      </g>
     </g>
    </g>
    <g id="xtick_4">
     <g id="line2d_4">
      <g>
       <use style="stroke:#000000;stroke-width:0.8;" x="213.036923" xlink:href="#mf7ece61ae7" y="252"/>
      </g>
     </g>
     <g id="text_4">
      <!-- 0.46 -->
      <defs>
       <path d="M 33.015625 40.375 
Q 26.375 40.375 22.484375 35.828125 
Q 18.609375 31.296875 18.609375 23.390625 
Q 18.609375 15.53125 22.484375 10.953125 
Q 26.375 6.390625 33.015625 6.390625 
Q 39.65625 6.390625 43.53125 10.953125 
Q 47.40625 15.53125 47.40625 23.390625 
Q 47.40625 31.296875 43.53125 35.828125 
Q 39.65625 40.375 33.015625 40.375 
z
M 52.59375 71.296875 
L 52.59375 62.3125 
Q 48.875 64.0625 45.09375 64.984375 
Q 41.3125 65.921875 37.59375 65.921875 
Q 27.828125 65.921875 22.671875 59.328125 
Q 17.53125 52.734375 16.796875 39.40625 
Q 19.671875 43.65625 24.015625 45.921875 
Q 28.375 48.1875 33.59375 48.1875 
Q 44.578125 48.1875 50.953125 41.515625 
Q 57.328125 34.859375 57.328125 23.390625 
Q 57.328125 12.15625 50.6875 5.359375 
Q 44.046875 -1.421875 33.015625 -1.421875 
Q 20.359375 -1.421875 13.671875 8.265625 
Q 6.984375 17.96875 6.984375 36.375 
Q 6.984375 53.65625 15.1875 63.9375 
Q 23.390625 74.21875 37.203125 74.21875 
Q 40.921875 74.21875 44.703125 73.484375 
Q 48.484375 72.75 52.59375 71.296875 
z
" id="DejaVuSans-54"/>
      </defs>
      <g transform="translate(201.904111 266.598437)scale(0.1 -0.1)">
       <use xlink:href="#DejaVuSans-48"/>
       <use x="63.623047" xlink:href="#DejaVuSans-46"/>
       <use x="95.410156" xlink:href="#DejaVuSans-52"/>
       <use x="159.033203" xlink:href="#DejaVuSans-54"/>
      </g>
     </g>
    </g>
    <g id="xtick_5">
     <g id="line2d_5">
      <g>
       <use style="stroke:#000000;stroke-width:0.8;" x="246.489231" xlink:href="#mf7ece61ae7" y="252"/>
      </g>
     </g>
     <g id="text_5">
      <!-- 0.48 -->
      <defs>
       <path d="M 31.78125 34.625 
Q 24.75 34.625 20.71875 30.859375 
Q 16.703125 27.09375 16.703125 20.515625 
Q 16.703125 13.921875 20.71875 10.15625 
Q 24.75 6.390625 31.78125 6.390625 
Q 38.8125 6.390625 42.859375 10.171875 
Q 46.921875 13.96875 46.921875 20.515625 
Q 46.921875 27.09375 42.890625 30.859375 
Q 38.875 34.625 31.78125 34.625 
z
M 21.921875 38.8125 
Q 15.578125 40.375 12.03125 44.71875 
Q 8.5 49.078125 8.5 55.328125 
Q 8.5 64.0625 14.71875 69.140625 
Q 20.953125 74.21875 31.78125 74.21875 
Q 42.671875 74.21875 48.875 69.140625 
Q 55.078125 64.0625 55.078125 55.328125 
Q 55.078125 49.078125 51.53125 44.71875 
Q 48 40.375 41.703125 38.8125 
Q 48.828125 37.15625 52.796875 32.3125 
Q 56.78125 27.484375 56.78125 20.515625 
Q 56.78125 9.90625 50.3125 4.234375 
Q 43.84375 -1.421875 31.78125 -1.421875 
Q 19.734375 -1.421875 13.25 4.234375 
Q 6.78125 9.90625 6.78125 20.515625 
Q 6.78125 27.484375 10.78125 32.3125 
Q 14.796875 37.15625 21.921875 38.8125 
z
M 18.3125 54.390625 
Q 18.3125 48.734375 21.84375 45.5625 
Q 25.390625 42.390625 31.78125 42.390625 
Q 38.140625 42.390625 41.71875 45.5625 
Q 45.3125 48.734375 45.3125 54.390625 
Q 45.3125 60.0625 41.71875 63.234375 
Q 38.140625 66.40625 31.78125 66.40625 
Q 25.390625 66.40625 21.84375 63.234375 
Q 18.3125 60.0625 18.3125 54.390625 
z
" id="DejaVuSans-56"/>
      </defs>
      <g transform="translate(235.356418 266.598437)scale(0.1 -0.1)">
       <use xlink:href="#DejaVuSans-48"/>
       <use x="63.623047" xlink:href="#DejaVuSans-46"/>
       <use x="95.410156" xlink:href="#DejaVuSans-52"/>
       <use x="159.033203" xlink:href="#DejaVuSans-56"/>
      </g>
     </g>
    </g>
    <g id="xtick_6">
     <g id="line2d_6">
      <g>
       <use style="stroke:#000000;stroke-width:0.8;" x="279.941538" xlink:href="#mf7ece61ae7" y="252"/>
      </g>
     </g>
     <g id="text_6">
      <!-- 0.50 -->
      <defs>
       <path d="M 10.796875 72.90625 
L 49.515625 72.90625 
L 49.515625 64.59375 
L 19.828125 64.59375 
L 19.828125 46.734375 
Q 21.96875 47.46875 24.109375 47.828125 
Q 26.265625 48.1875 28.421875 48.1875 
Q 40.625 48.1875 47.75 41.5 
Q 54.890625 34.8125 54.890625 23.390625 
Q 54.890625 11.625 47.5625 5.09375 
Q 40.234375 -1.421875 26.90625 -1.421875 
Q 22.3125 -1.421875 17.546875 -0.640625 
Q 12.796875 0.140625 7.71875 1.703125 
L 7.71875 11.625 
Q 12.109375 9.234375 16.796875 8.0625 
Q 21.484375 6.890625 26.703125 6.890625 
Q 35.15625 6.890625 40.078125 11.328125 
Q 45.015625 15.765625 45.015625 23.390625 
Q 45.015625 31 40.078125 35.4375 
Q 35.15625 39.890625 26.703125 39.890625 
Q 22.75 39.890625 18.8125 39.015625 
Q 14.890625 38.140625 10.796875 36.28125 
z
" id="DejaVuSans-53"/>
      </defs>
      <g transform="translate(268.808726 266.598437)scale(0.1 -0.1)">
       <use xlink:href="#DejaVuSans-48"/>
       <use x="63.623047" xlink:href="#DejaVuSans-46"/>
       <use x="95.410156" xlink:href="#DejaVuSans-53"/>
       <use x="159.033203" xlink:href="#DejaVuSans-48"/>
      </g>
     </g>
    </g>
    <g id="xtick_7">
     <g id="line2d_7">
      <g>
       <use style="stroke:#000000;stroke-width:0.8;" x="313.393846" xlink:href="#mf7ece61ae7" y="252"/>
      </g>
     </g>
     <g id="text_7">
      <!-- 0.52 -->
      <g transform="translate(302.261034 266.598437)scale(0.1 -0.1)">
       <use xlink:href="#DejaVuSans-48"/>
       <use x="63.623047" xlink:href="#DejaVuSans-46"/>
       <use x="95.410156" xlink:href="#DejaVuSans-53"/>
       <use x="159.033203" xlink:href="#DejaVuSans-50"/>
      </g>
     </g>
    </g>
    <g id="text_8">
     <!-- x -->
     <defs>
      <path d="M 54.890625 54.6875 
L 35.109375 28.078125 
L 55.90625 0 
L 45.3125 0 
L 29.390625 21.484375 
L 13.484375 0 
L 2.875 0 
L 24.125 28.609375 
L 4.6875 54.6875 
L 15.28125 54.6875 
L 29.78125 35.203125 
L 44.28125 54.6875 
z
" id="DejaVuSans-120"/>
     </defs>
     <g transform="translate(218.440625 280.276563)scale(0.1 -0.1)">
      <use xlink:href="#DejaVuSans-120"/>
     </g>
    </g>
   </g>
   <g id="matplotlib.axis_2">
    <g id="ytick_1">
     <g id="line2d_8">
      <defs>
       <path d="M 0 0 
L -3.5 0 
" id="m494e90797e" style="stroke:#000000;stroke-width:0.8;"/>
      </defs>
      <g>
       <use style="stroke:#000000;stroke-width:0.8;" x="112.68" xlink:href="#m494e90797e" y="252"/>
      </g>
     </g>
     <g id="text_9">
      <!-- 0.40 -->
      <g transform="translate(83.414375 255.799219)scale(0.1 -0.1)">
       <use xlink:href="#DejaVuSans-48"/>
       <use x="63.623047" xlink:href="#DejaVuSans-46"/>
       <use x="95.410156" xlink:href="#DejaVuSans-52"/>
       <use x="159.033203" xlink:href="#DejaVuSans-48"/>
      </g>
     </g>
    </g>
    <g id="ytick_2">
     <g id="line2d_9">
      <g>
       <use style="stroke:#000000;stroke-width:0.8;" x="112.68" xlink:href="#m494e90797e" y="218.547692"/>
      </g>
     </g>
     <g id="text_10">
      <!-- 0.42 -->
      <g transform="translate(83.414375 222.346911)scale(0.1 -0.1)">
       <use xlink:href="#DejaVuSans-48"/>
       <use x="63.623047" xlink:href="#DejaVuSans-46"/>
       <use x="95.410156" xlink:href="#DejaVuSans-52"/>
       <use x="159.033203" xlink:href="#DejaVuSans-50"/>
      </g>
     </g>
    </g>
    <g id="ytick_3">
     <g id="line2d_10">
      <g>
       <use style="stroke:#000000;stroke-width:0.8;" x="112.68" xlink:href="#m494e90797e" y="185.095385"/>
      </g>
     </g>
     <g id="text_11">
      <!-- 0.44 -->
      <g transform="translate(83.414375 188.894603)scale(0.1 -0.1)">
       <use xlink:href="#DejaVuSans-48"/>
       <use x="63.623047" xlink:href="#DejaVuSans-46"/>
       <use x="95.410156" xlink:href="#DejaVuSans-52"/>
       <use x="159.033203" xlink:href="#DejaVuSans-52"/>
      </g>
     </g>
    </g>
    <g id="ytick_4">
     <g id="line2d_11">
      <g>
       <use style="stroke:#000000;stroke-width:0.8;" x="112.68" xlink:href="#m494e90797e" y="151.643077"/>
      </g>
     </g>
     <g id="text_12">
      <!-- 0.46 -->
      <g transform="translate(83.414375 155.442296)scale(0.1 -0.1)">
       <use xlink:href="#DejaVuSans-48"/>
       <use x="63.623047" xlink:href="#DejaVuSans-46"/>
       <use x="95.410156" xlink:href="#DejaVuSans-52"/>
       <use x="159.033203" xlink:href="#DejaVuSans-54"/>
      </g>
     </g>
    </g>
    <g id="ytick_5">
     <g id="line2d_12">
      <g>
       <use style="stroke:#000000;stroke-width:0.8;" x="112.68" xlink:href="#m494e90797e" y="118.190769"/>
      </g>
     </g>
     <g id="text_13">
      <!-- 0.48 -->
      <g transform="translate(83.414375 121.989988)scale(0.1 -0.1)">
       <use xlink:href="#DejaVuSans-48"/>
       <use x="63.623047" xlink:href="#DejaVuSans-46"/>
       <use x="95.410156" xlink:href="#DejaVuSans-52"/>
       <use x="159.033203" xlink:href="#DejaVuSans-56"/>
      </g>
     </g>
    </g>
    <g id="ytick_6">
     <g id="line2d_13">
      <g>
       <use style="stroke:#000000;stroke-width:0.8;" x="112.68" xlink:href="#m494e90797e" y="84.738462"/>
      </g>
     </g>
     <g id="text_14">
      <!-- 0.50 -->
      <g transform="translate(83.414375 88.53768)scale(0.1 -0.1)">
       <use xlink:href="#DejaVuSans-48"/>
       <use x="63.623047" xlink:href="#DejaVuSans-46"/>
       <use x="95.410156" xlink:href="#DejaVuSans-53"/>
       <use x="159.033203" xlink:href="#DejaVuSans-48"/>
      </g>
     </g>
    </g>
    <g id="ytick_7">
     <g id="line2d_14">
      <g>
       <use style="stroke:#000000;stroke-width:0.8;" x="112.68" xlink:href="#m494e90797e" y="51.286154"/>
      </g>
     </g>
     <g id="text_15">
      <!-- 0.52 -->
      <g transform="translate(83.414375 55.085373)scale(0.1 -0.1)">
       <use xlink:href="#DejaVuSans-48"/>
       <use x="63.623047" xlink:href="#DejaVuSans-46"/>
       <use x="95.410156" xlink:href="#DejaVuSans-53"/>
       <use x="159.033203" xlink:href="#DejaVuSans-50"/>
      </g>
     </g>
    </g>
    <g id="text_16">
     <!-- y -->
     <defs>
      <path d="M 32.171875 -5.078125 
Q 28.375 -14.84375 24.75 -17.8125 
Q 21.140625 -20.796875 15.09375 -20.796875 
L 7.90625 -20.796875 
L 7.90625 -13.28125 
L 13.1875 -13.28125 
Q 16.890625 -13.28125 18.9375 -11.515625 
Q 21 -9.765625 23.484375 -3.21875 
L 25.09375 0.875 
L 2.984375 54.6875 
L 12.5 54.6875 
L 29.59375 11.921875 
L 46.6875 54.6875 
L 56.203125 54.6875 
z
" id="DejaVuSans-121"/>
     </defs>
     <g transform="translate(77.334688 146.239375)rotate(-90)scale(0.1 -0.1)">
      <use xlink:href="#DejaVuSans-121"/>
     </g>
    </g>
   </g>
   <g id="line2d_15">
    <path clip-path="url(#pe267b7b522)" d="M 110.668783 254.011217 
L 112.911671 251.768329 
L 115.15456 249.52544 
L 117.397448 247.282552 
L 119.640337 245.039663 
L 121.883225 242.796775 
L 124.126114 240.553886 
L 126.369002 238.310998 
L 128.611891 236.068109 
L 130.854779 233.825221 
L 133.097668 231.582332 
L 135.340556 229.339444 
L 137.583445 227.096555 
L 139.826333 224.853667 
L 142.069222 222.610778 
L 144.31211 220.36789 
L 146.554998 218.125002 
L 148.797887 215.882113 
L 151.040775 213.639225 
L 153.283664 211.396336 
L 155.526552 209.153448 
L 157.769441 206.910559 
L 160.012329 204.667671 
L 162.255218 202.424782 
L 164.498106 200.181894 
L 166.740995 197.939005 
L 168.983883 195.696117 
L 171.226772 193.453228 
L 173.46966 191.21034 
L 175.712549 188.967451 
L 177.955437 186.724563 
L 180.198326 184.481674 
L 182.441214 182.238786 
L 184.684103 179.995897 
L 186.926991 177.753009 
L 189.16988 175.51012 
L 191.412768 173.267232 
L 193.655657 171.024343 
L 195.898545 168.781455 
L 198.141434 166.538566 
L 200.384322 164.295678 
L 202.627211 162.052789 
L 204.870099 159.809901 
L 207.112987 157.567013 
L 209.355876 155.324124 
L 211.598764 153.081236 
L 213.841653 150.838347 
L 216.084541 148.595459 
L 218.32743 146.35257 
L 220.570318 144.109682 
L 222.813207 141.866793 
L 225.056095 139.623905 
L 227.298984 137.381016 
L 229.541872 135.138128 
L 231.784761 132.895239 
L 234.027649 130.652351 
L 236.270538 128.409462 
L 238.513426 126.166574 
L 240.756315 123.923685 
L 242.999203 121.680797 
L 245.242092 119.437908 
L 247.48498 117.19502 
L 249.727869 114.952131 
L 251.970757 112.709243 
L 254.213646 110.466354 
L 256.456534 108.223466 
L 258.699423 105.980577 
L 260.942311 103.737689 
L 263.1852 101.4948 
L 265.428088 99.251912 
L 267.670976 97.009024 
L 269.913865 94.766135 
L 272.156753 92.523247 
L 274.399642 90.280358 
L 276.64253 88.03747 
L 278.885419 85.794581 
L 281.128307 83.551693 
L 283.371196 81.308804 
L 285.614084 79.065916 
L 287.856973 76.823027 
L 290.099861 74.580139 
L 292.34275 72.33725 
L 294.585638 70.094362 
L 296.828527 67.851473 
L 299.071415 65.608585 
L 301.314304 63.365696 
L 303.557192 61.122808 
L 305.800081 58.879919 
L 308.042969 56.637031 
L 310.285858 54.394142 
L 312.528746 52.151254 
L 314.771635 49.908365 
L 317.014523 47.665477 
L 319.257412 45.422588 
L 321.5003 43.1797 
L 323.743189 40.936811 
L 325.986077 38.693923 
L 328.228965 36.451035 
L 330.471854 34.208146 
L 332.714742 31.965258 
" style="fill:none;stroke:#1f77b4;stroke-linecap:square;stroke-width:2.25;"/>
   </g>
   <g id="line2d_16">
    <path clip-path="url(#pe267b7b522)" d="M 110.668783 254.011217 
L 332.714742 31.965258 
" style="fill:none;stroke:#ff7f0e;stroke-linecap:square;stroke-width:1.5;"/>
   </g>
   <g id="patch_3">
    <path d="M 112.68 252 
L 112.68 34.56 
" style="fill:none;stroke:#000000;stroke-linecap:square;stroke-linejoin:miter;stroke-width:0.8;"/>
   </g>
   <g id="patch_4">
    <path d="M 330.12 252 
L 330.12 34.56 
" style="fill:none;stroke:#000000;stroke-linecap:square;stroke-linejoin:miter;stroke-width:0.8;"/>
   </g>
   <g id="patch_5">
    <path d="M 112.68 252 
L 330.12 252 
" style="fill:none;stroke:#000000;stroke-linecap:square;stroke-linejoin:miter;stroke-width:0.8;"/>
   </g>
   <g id="patch_6">
    <path d="M 112.68 34.56 
L 330.12 34.56 
" style="fill:none;stroke:#000000;stroke-linecap:square;stroke-linejoin:miter;stroke-width:0.8;"/>
   </g>
  </g>
 </g>
 <defs>
  <clipPath id="pe267b7b522">
   <rect height="217.44" width="217.44" x="112.68" y="34.56"/>
  </clipPath>
 </defs>
</svg>
